<?xml version="1.0" encoding="UTF-8"?>
<svg xmlns="http://www.w3.org/2000/svg" xmlns:xlink="http://www.w3.org/1999/xlink" width="146.092pt" height="139.236pt" viewBox="0 0 146.092 139.236">
<defs>
<g>
<g id="glyph-0-0">
<path d="M 3.890625 -2.546875 C 3.890625 -1.753906 3.785156 -1.148438 3.578125 -0.734375 C 3.265625 -0.128906 2.773438 0.171875 2.109375 0.171875 C 1.492188 0.171875 1.035156 -0.078125 0.734375 -0.578125 C 0.460938 -1.023438 0.328125 -1.679688 0.328125 -2.546875 C 0.328125 -3.328125 0.425781 -3.921875 0.625 -4.328125 C 0.945312 -4.972656 1.441406 -5.296875 2.109375 -5.296875 C 2.378906 -5.296875 2.644531 -5.226562 2.90625 -5.09375 C 3.175781 -4.96875 3.390625 -4.742188 3.546875 -4.421875 C 3.773438 -3.972656 3.890625 -3.347656 3.890625 -2.546875 Z M 2.109375 -0.0625 C 2.191406 -0.0625 2.273438 -0.0703125 2.359375 -0.09375 C 2.441406 -0.113281 2.53125 -0.148438 2.625 -0.203125 C 2.726562 -0.265625 2.820312 -0.363281 2.90625 -0.5 C 2.988281 -0.632812 3.050781 -0.800781 3.09375 -1 C 3.15625 -1.300781 3.1875 -1.847656 3.1875 -2.640625 C 3.1875 -3.398438 3.15625 -3.925781 3.09375 -4.21875 C 3.019531 -4.53125 2.882812 -4.75 2.6875 -4.875 C 2.5 -5.007812 2.304688 -5.078125 2.109375 -5.078125 C 2.046875 -5.078125 1.972656 -5.066406 1.890625 -5.046875 C 1.816406 -5.023438 1.722656 -4.988281 1.609375 -4.9375 C 1.503906 -4.882812 1.40625 -4.789062 1.3125 -4.65625 C 1.21875 -4.53125 1.15625 -4.375 1.125 -4.1875 C 1.0625 -3.894531 1.03125 -3.378906 1.03125 -2.640625 C 1.03125 -1.859375 1.0625 -1.316406 1.125 -1.015625 C 1.195312 -0.648438 1.328125 -0.398438 1.515625 -0.265625 C 1.710938 -0.128906 1.910156 -0.0625 2.109375 -0.0625 Z M 2.109375 -0.0625 "/>
</g>
<g id="glyph-0-1">
<path d="M 1.09375 -2.640625 C 1.332031 -3.140625 1.703125 -3.390625 2.203125 -3.390625 C 2.648438 -3.390625 3.039062 -3.21875 3.375 -2.875 C 3.707031 -2.539062 3.875 -2.125 3.875 -1.625 C 3.875 -1.300781 3.820312 -1.039062 3.71875 -0.84375 C 3.613281 -0.65625 3.46875 -0.46875 3.28125 -0.28125 C 2.96875 0.0195312 2.582031 0.171875 2.125 0.171875 C 1.914062 0.171875 1.710938 0.128906 1.515625 0.046875 C 1.328125 -0.0351562 1.140625 -0.171875 0.953125 -0.359375 C 0.765625 -0.546875 0.613281 -0.820312 0.5 -1.1875 C 0.394531 -1.5625 0.34375 -2.007812 0.34375 -2.53125 C 0.34375 -3.351562 0.566406 -4.019531 1.015625 -4.53125 C 1.472656 -5.039062 1.992188 -5.296875 2.578125 -5.296875 C 2.921875 -5.296875 3.1875 -5.210938 3.375 -5.046875 C 3.5625 -4.890625 3.65625 -4.6875 3.65625 -4.4375 C 3.65625 -4.289062 3.613281 -4.1875 3.53125 -4.125 C 3.457031 -4.070312 3.375 -4.046875 3.28125 -4.046875 C 3.175781 -4.046875 3.085938 -4.078125 3.015625 -4.140625 C 2.941406 -4.210938 2.90625 -4.304688 2.90625 -4.421875 C 2.90625 -4.460938 2.910156 -4.503906 2.921875 -4.546875 C 2.941406 -4.597656 2.984375 -4.648438 3.046875 -4.703125 C 3.109375 -4.753906 3.191406 -4.785156 3.296875 -4.796875 C 3.160156 -4.992188 2.925781 -5.09375 2.59375 -5.09375 C 2.113281 -5.09375 1.726562 -4.847656 1.4375 -4.359375 C 1.207031 -3.972656 1.09375 -3.398438 1.09375 -2.640625 Z M 2.125 -0.078125 C 2.488281 -0.078125 2.769531 -0.242188 2.96875 -0.578125 C 3.070312 -0.773438 3.125 -1.125 3.125 -1.625 C 3.125 -2.132812 3.066406 -2.488281 2.953125 -2.6875 C 2.773438 -3.007812 2.515625 -3.171875 2.171875 -3.171875 C 1.867188 -3.171875 1.617188 -3.039062 1.421875 -2.78125 C 1.222656 -2.519531 1.125 -2.191406 1.125 -1.796875 C 1.125 -1.253906 1.191406 -0.851562 1.328125 -0.59375 C 1.515625 -0.25 1.78125 -0.078125 2.125 -0.078125 Z M 2.125 -0.078125 "/>
</g>
<g id="glyph-0-2">
<path d="M 3.140625 -5.15625 L 3.140625 -1.5625 L 3.984375 -1.5625 L 3.984375 -1.3125 L 3.140625 -1.3125 L 3.140625 -0.640625 C 3.140625 -0.484375 3.171875 -0.378906 3.234375 -0.328125 C 3.304688 -0.285156 3.488281 -0.265625 3.78125 -0.265625 L 3.953125 -0.265625 L 3.953125 0 C 3.503906 -0.0195312 3.125 -0.03125 2.8125 -0.03125 C 2.5 -0.03125 2.117188 -0.0195312 1.671875 0 L 1.671875 -0.265625 L 1.84375 -0.265625 C 2.132812 -0.265625 2.3125 -0.285156 2.375 -0.328125 C 2.445312 -0.378906 2.484375 -0.484375 2.484375 -0.640625 L 2.484375 -1.3125 L 0.234375 -1.3125 L 0.234375 -1.5625 L 2.78125 -5.265625 C 2.820312 -5.316406 2.847656 -5.347656 2.859375 -5.359375 C 2.878906 -5.367188 2.914062 -5.375 2.96875 -5.375 C 3.050781 -5.375 3.097656 -5.359375 3.109375 -5.328125 C 3.128906 -5.304688 3.140625 -5.25 3.140625 -5.15625 Z M 2.546875 -4.515625 L 0.515625 -1.5625 L 2.546875 -1.5625 Z M 2.546875 -4.515625 "/>
</g>
<g id="glyph-0-3">
<path d="M 2.25 -1.625 L 1.171875 -0.65625 L 2.59375 -0.65625 C 3.082031 -0.65625 3.34375 -0.675781 3.375 -0.71875 C 3.4375 -0.820312 3.492188 -1.054688 3.546875 -1.421875 L 3.796875 -1.421875 L 3.5625 0 L 0.421875 0 C 0.421875 -0.101562 0.425781 -0.164062 0.4375 -0.1875 C 0.445312 -0.21875 0.472656 -0.253906 0.515625 -0.296875 L 1.515625 -1.34375 C 1.910156 -1.738281 2.191406 -2.035156 2.359375 -2.234375 C 2.535156 -2.429688 2.691406 -2.664062 2.828125 -2.9375 C 2.972656 -3.207031 3.046875 -3.472656 3.046875 -3.734375 C 3.046875 -4.085938 2.945312 -4.390625 2.75 -4.640625 C 2.550781 -4.898438 2.273438 -5.03125 1.921875 -5.03125 C 1.691406 -5.03125 1.46875 -4.96875 1.25 -4.84375 C 1.03125 -4.71875 0.867188 -4.519531 0.765625 -4.25 C 1.097656 -4.25 1.265625 -4.113281 1.265625 -3.84375 C 1.265625 -3.707031 1.21875 -3.601562 1.125 -3.53125 C 1.039062 -3.457031 0.945312 -3.421875 0.84375 -3.421875 C 0.789062 -3.421875 0.734375 -3.425781 0.671875 -3.4375 C 0.617188 -3.457031 0.5625 -3.503906 0.5 -3.578125 C 0.445312 -3.648438 0.421875 -3.742188 0.421875 -3.859375 C 0.421875 -4.234375 0.570312 -4.566406 0.875 -4.859375 C 1.175781 -5.148438 1.554688 -5.296875 2.015625 -5.296875 C 2.515625 -5.296875 2.9375 -5.148438 3.28125 -4.859375 C 3.625 -4.578125 3.796875 -4.203125 3.796875 -3.734375 C 3.796875 -3.554688 3.769531 -3.394531 3.71875 -3.25 C 3.675781 -3.101562 3.597656 -2.957031 3.484375 -2.8125 C 3.378906 -2.675781 3.285156 -2.5625 3.203125 -2.46875 C 3.117188 -2.382812 3 -2.269531 2.84375 -2.125 C 2.800781 -2.09375 2.703125 -2.007812 2.546875 -1.875 C 2.390625 -1.75 2.289062 -1.664062 2.25 -1.625 Z M 2.25 -1.625 "/>
</g>
<g id="glyph-0-4">
<path d="M 2.5 -5.078125 L 2.5 -0.65625 C 2.5 -0.539062 2.507812 -0.457031 2.53125 -0.40625 C 2.5625 -0.363281 2.628906 -0.328125 2.734375 -0.296875 C 2.847656 -0.273438 3.03125 -0.265625 3.28125 -0.265625 L 3.5625 -0.265625 L 3.5625 0 C 3.34375 -0.0195312 2.882812 -0.03125 2.1875 -0.03125 C 1.488281 -0.03125 1.03125 -0.0195312 0.8125 0 L 0.8125 -0.265625 L 1.09375 -0.265625 C 1.34375 -0.265625 1.519531 -0.273438 1.625 -0.296875 C 1.738281 -0.328125 1.804688 -0.363281 1.828125 -0.40625 C 1.859375 -0.457031 1.875 -0.539062 1.875 -0.65625 L 1.875 -4.734375 C 1.5625 -4.597656 1.191406 -4.53125 0.765625 -4.53125 L 0.765625 -4.796875 C 1.421875 -4.796875 1.921875 -4.960938 2.265625 -5.296875 C 2.378906 -5.296875 2.445312 -5.285156 2.46875 -5.265625 C 2.488281 -5.242188 2.5 -5.179688 2.5 -5.078125 Z M 2.5 -5.078125 "/>
</g>
<g id="glyph-1-0">
<path d="M 1.625 -0.4375 C 1.625 -0.320312 1.578125 -0.21875 1.484375 -0.125 C 1.398438 -0.0390625 1.296875 0 1.171875 0 C 1.054688 0 0.953125 -0.0390625 0.859375 -0.125 C 0.773438 -0.207031 0.734375 -0.316406 0.734375 -0.453125 C 0.734375 -0.566406 0.773438 -0.664062 0.859375 -0.75 C 0.941406 -0.84375 1.046875 -0.890625 1.171875 -0.890625 C 1.285156 -0.890625 1.390625 -0.84375 1.484375 -0.75 C 1.578125 -0.664062 1.625 -0.5625 1.625 -0.4375 Z M 1.625 -0.4375 "/>
</g>
</g>
<clipPath id="clip-0">
<path clip-rule="nonzero" d="M 127 124 L 146 124 L 146 139.234375 L 127 139.234375 Z M 127 124 "/>
</clipPath>
</defs>
<path fill-rule="nonzero" fill="rgb(50.196838%, 50.196838%, 50.196838%)" fill-opacity="1" stroke-width="0.398" stroke-linecap="butt" stroke-linejoin="miter" stroke="rgb(50.196838%, 50.196838%, 50.196838%)" stroke-opacity="1" stroke-miterlimit="10" d="M 0.00105 -0.00050625 C 0.00105 0.90965 -0.737231 1.644025 -1.643481 1.644025 C -2.553637 1.644025 -3.288012 0.90965 -3.288012 -0.00050625 C -3.288012 -0.906756 -2.553637 -1.645037 -1.643481 -1.645037 C -0.737231 -1.645037 0.00105 -0.906756 0.00105 -0.00050625 Z M 0.00105 -0.00050625 " transform="matrix(1, 0, 0, -1, 10.4677, 89.0034)"/>
<path fill-rule="nonzero" fill="rgb(50.196838%, 50.196838%, 50.196838%)" fill-opacity="1" stroke-width="0.398" stroke-linecap="butt" stroke-linejoin="miter" stroke="rgb(50.196838%, 50.196838%, 50.196838%)" stroke-opacity="1" stroke-miterlimit="10" d="M 0.00028125 -0.00161875 C 0.00028125 0.908537 -0.734094 1.642912 -1.64425 1.642912 C -2.5505 1.642912 -3.288781 0.908537 -3.288781 -0.00161875 C -3.288781 -0.907869 -2.5505 -1.642244 -1.64425 -1.642244 C -0.734094 -1.642244 0.00028125 -0.907869 0.00028125 -0.00161875 Z M 0.00028125 -0.00161875 " transform="matrix(1, 0, 0, -1, 52.988, 103.9476)"/>
<path fill="none" stroke-width="0.398" stroke-linecap="butt" stroke-linejoin="miter" stroke="rgb(0%, 0%, 0%)" stroke-opacity="1" stroke-miterlimit="10" d="M 0.00010625 0.0014875 L 39.285262 -13.807106 " transform="matrix(1, 0, 0, -1, 10.4413, 89.5718)"/>
<path fill-rule="nonzero" fill="rgb(50.196838%, 50.196838%, 50.196838%)" fill-opacity="1" d="M 95.507812 118.890625 C 95.507812 117.984375 94.773438 117.246094 93.863281 117.246094 C 92.957031 117.246094 92.222656 117.984375 92.222656 118.890625 C 92.222656 119.800781 92.957031 120.535156 93.863281 120.535156 C 94.773438 120.535156 95.507812 119.800781 95.507812 118.890625 Z M 95.507812 118.890625 "/>
<path fill="none" stroke-width="0.398" stroke-linecap="butt" stroke-linejoin="miter" stroke="rgb(50.196838%, 50.196838%, 50.196838%)" stroke-opacity="1" stroke-miterlimit="10" d="M -0.0003875 0.001175 C -0.0003875 0.907425 -0.734763 1.645706 -1.644919 1.645706 C -2.551169 1.645706 -3.28945 0.907425 -3.28945 0.001175 C -3.28945 -0.908981 -2.551169 -1.643356 -1.644919 -1.643356 C -0.734763 -1.643356 -0.0003875 -0.908981 -0.0003875 0.001175 Z M -0.0003875 0.001175 " transform="matrix(1, 0, 0, -1, 95.5082, 118.8918)"/>
<path fill="none" stroke-width="0.398" stroke-linecap="butt" stroke-linejoin="miter" stroke="rgb(0%, 0%, 0%)" stroke-opacity="1" stroke-miterlimit="10" d="M -0.0005625 0.000375 L 39.284594 -13.808219 " transform="matrix(1, 0, 0, -1, 52.9615, 104.516)"/>
<path fill-rule="nonzero" fill="rgb(50.196838%, 50.196838%, 50.196838%)" fill-opacity="1" d="M 139.671875 133.835938 C 139.671875 132.019531 138.199219 130.550781 136.386719 130.550781 C 134.570312 130.550781 133.097656 132.019531 133.097656 133.835938 C 133.097656 135.652344 134.570312 137.121094 136.386719 137.121094 C 138.199219 137.121094 139.671875 135.652344 139.671875 133.835938 Z M 139.671875 133.835938 "/>
<g clip-path="url(#clip-0)">
<path fill="none" stroke-width="0.398" stroke-linecap="butt" stroke-linejoin="miter" stroke="rgb(50.196838%, 50.196838%, 50.196838%)" stroke-opacity="1" stroke-miterlimit="10" d="M -0.000225 -0.0000375 C -0.000225 1.816369 -1.472881 3.285119 -3.285381 3.285119 C -5.101787 3.285119 -6.574444 1.816369 -6.574444 -0.0000375 C -6.574444 -1.816444 -5.101787 -3.285194 -3.285381 -3.285194 C -1.472881 -3.285194 -0.000225 -1.816444 -0.000225 -0.0000375 Z M -0.000225 -0.0000375 " transform="matrix(1, 0, 0, -1, 139.6721, 133.8359)"/>
</g>
<path fill="none" stroke-width="0.398" stroke-linecap="butt" stroke-linejoin="miter" stroke="rgb(0%, 0%, 0%)" stroke-opacity="1" stroke-miterlimit="10" d="M -0.00123125 -0.0008375 L 37.670644 -13.239119 " transform="matrix(1, 0, 0, -1, 95.4817, 119.4601)"/>
<path fill-rule="nonzero" fill="rgb(50.196838%, 50.196838%, 50.196838%)" fill-opacity="1" stroke-width="0.398" stroke-linecap="butt" stroke-linejoin="miter" stroke="rgb(50.196838%, 50.196838%, 50.196838%)" stroke-opacity="1" stroke-miterlimit="10" d="M -0.000225 -0.00161875 C -0.000225 1.814787 -1.472881 3.287444 -3.285381 3.287444 C -5.101787 3.287444 -6.574444 1.814787 -6.574444 -0.00161875 C -6.574444 -1.814119 -5.101787 -3.286775 -3.285381 -3.286775 C -1.472881 -3.286775 -0.000225 -1.814119 -0.000225 -0.00161875 Z M -0.000225 -0.00161875 " transform="matrix(1, 0, 0, -1, 139.6721, 103.9476)"/>
<path fill="none" stroke-width="0.398" stroke-linecap="butt" stroke-linejoin="miter" stroke="rgb(0%, 0%, 0%)" stroke-opacity="1" stroke-miterlimit="10" d="M -0.00123125 -0.00081875 L 37.670644 13.237462 " transform="matrix(1, 0, 0, -1, 95.4817, 118.3234)"/>
<path fill="none" stroke-width="0.398" stroke-linecap="butt" stroke-linejoin="miter" stroke="rgb(0%, 0%, 0%)" stroke-opacity="1" stroke-miterlimit="10" d="M -0.0005625 0.00029375 L 40.901781 14.375294 " transform="matrix(1, 0, 0, -1, 52.9615, 103.3792)"/>
<path fill-rule="nonzero" fill="rgb(50.196838%, 50.196838%, 50.196838%)" fill-opacity="1" stroke-width="0.398" stroke-linecap="butt" stroke-linejoin="miter" stroke="rgb(50.196838%, 50.196838%, 50.196838%)" stroke-opacity="1" stroke-miterlimit="10" d="M -0.000225 0.00060625 C -0.000225 1.817013 -1.472881 3.285763 -3.285381 3.285763 C -5.101787 3.285763 -6.574444 1.817013 -6.574444 0.00060625 C -6.574444 -1.8158 -5.101787 -3.288456 -3.285381 -3.288456 C -1.472881 -3.288456 -0.000225 -1.8158 -0.000225 0.00060625 Z M -0.000225 0.00060625 " transform="matrix(1, 0, 0, -1, 139.6721, 74.0592)"/>
<path fill="none" stroke-width="0.398" stroke-linecap="butt" stroke-linejoin="miter" stroke="rgb(0%, 0%, 0%)" stroke-opacity="1" stroke-miterlimit="10" d="M -0.00111875 -0.00050625 L 39.287944 13.808088 " transform="matrix(1, 0, 0, -1, 93.8644, 89.0034)"/>
<path fill="none" stroke-width="0.398" stroke-linecap="butt" stroke-linejoin="miter" stroke="rgb(0%, 0%, 0%)" stroke-opacity="1" stroke-miterlimit="10" d="M 0.00010625 0.00150625 L 40.90245 14.376506 " transform="matrix(1, 0, 0, -1, 10.4413, 88.4351)"/>
<path fill="none" stroke-width="0.398" stroke-linecap="butt" stroke-linejoin="miter" stroke="rgb(0%, 0%, 0%)" stroke-opacity="1" stroke-miterlimit="10" d="M -0.00045 0.00070625 L 42.519081 14.942113 " transform="matrix(1, 0, 0, -1, 51.3442, 74.0593)"/>
<path fill-rule="nonzero" fill="rgb(50.196838%, 50.196838%, 50.196838%)" fill-opacity="1" stroke-width="0.398" stroke-linecap="butt" stroke-linejoin="miter" stroke="rgb(50.196838%, 50.196838%, 50.196838%)" stroke-opacity="1" stroke-miterlimit="10" d="M -0.000225 -0.000975 C -0.000225 1.815431 -1.472881 3.288088 -3.285381 3.288088 C -5.101787 3.288088 -6.574444 1.815431 -6.574444 -0.000975 C -6.574444 -1.817381 -5.101787 -3.286131 -3.285381 -3.286131 C -1.472881 -3.286131 -0.000225 -1.817381 -0.000225 -0.000975 Z M -0.000225 -0.000975 " transform="matrix(1, 0, 0, -1, 139.6721, 44.1709)"/>
<path fill="none" stroke-width="0.398" stroke-linecap="butt" stroke-linejoin="miter" stroke="rgb(0%, 0%, 0%)" stroke-opacity="1" stroke-miterlimit="10" d="M -0.00111875 0.00181875 L 39.287944 13.806506 " transform="matrix(1, 0, 0, -1, 93.8644, 59.1151)"/>
<path fill-rule="nonzero" fill="rgb(50.196838%, 50.196838%, 50.196838%)" fill-opacity="1" stroke-width="0.398" stroke-linecap="butt" stroke-linejoin="miter" stroke="rgb(50.196838%, 50.196838%, 50.196838%)" stroke-opacity="1" stroke-miterlimit="10" d="M -0.000225 0.00125 C -0.000225 1.817656 -1.472881 3.286406 -3.285381 3.286406 C -5.101787 3.286406 -6.574444 1.817656 -6.574444 0.00125 C -6.574444 -1.815156 -5.101787 -3.287813 -3.285381 -3.287813 C -1.472881 -3.287813 -0.000225 -1.815156 -0.000225 0.00125 Z M -0.000225 0.00125 " transform="matrix(1, 0, 0, -1, 139.6721, 14.2825)"/>
<g fill="rgb(0%, 0%, 0%)" fill-opacity="1">
<use xlink:href="#glyph-0-0" x="3.4136" y="83.4911"/>
</g>
<g fill="rgb(0%, 0%, 0%)" fill-opacity="1">
<use xlink:href="#glyph-1-0" x="7.645723" y="83.4911"/>
</g>
<g fill="rgb(0%, 0%, 0%)" fill-opacity="1">
<use xlink:href="#glyph-0-1" x="9.996903" y="83.4911"/>
</g>
<g fill="rgb(0%, 0%, 0%)" fill-opacity="1">
<use xlink:href="#glyph-0-0" x="130.97505" y="8.771412"/>
</g>
<g fill="rgb(0%, 0%, 0%)" fill-opacity="1">
<use xlink:href="#glyph-1-0" x="135.207174" y="8.771412"/>
</g>
<g fill="rgb(0%, 0%, 0%)" fill-opacity="1">
<use xlink:href="#glyph-0-2" x="137.558353" y="8.771412"/>
</g>
<g fill="rgb(0%, 0%, 0%)" fill-opacity="1">
<use xlink:href="#glyph-0-0" x="45.934084" y="98.435037"/>
</g>
<g fill="rgb(0%, 0%, 0%)" fill-opacity="1">
<use xlink:href="#glyph-1-0" x="50.166207" y="98.435037"/>
</g>
<g fill="rgb(0%, 0%, 0%)" fill-opacity="1">
<use xlink:href="#glyph-0-2" x="52.517386" y="98.435037"/>
</g>
<g fill="rgb(0%, 0%, 0%)" fill-opacity="1">
<use xlink:href="#glyph-0-0" x="88.454567" y="113.378975"/>
</g>
<g fill="rgb(0%, 0%, 0%)" fill-opacity="1">
<use xlink:href="#glyph-1-0" x="92.68669" y="113.378975"/>
</g>
<g fill="rgb(0%, 0%, 0%)" fill-opacity="1">
<use xlink:href="#glyph-0-3" x="95.03787" y="113.378975"/>
</g>
<g fill="rgb(0%, 0%, 0%)" fill-opacity="1">
<use xlink:href="#glyph-0-0" x="130.97505" y="68.547162"/>
</g>
<g fill="rgb(0%, 0%, 0%)" fill-opacity="1">
<use xlink:href="#glyph-1-0" x="135.207174" y="68.547162"/>
</g>
<g fill="rgb(0%, 0%, 0%)" fill-opacity="1">
<use xlink:href="#glyph-0-3" x="137.558353" y="68.547162"/>
</g>
<g fill="rgb(0%, 0%, 0%)" fill-opacity="1">
<use xlink:href="#glyph-0-0" x="130.97505" y="38.659287"/>
</g>
<g fill="rgb(0%, 0%, 0%)" fill-opacity="1">
<use xlink:href="#glyph-1-0" x="135.207174" y="38.659287"/>
</g>
<g fill="rgb(0%, 0%, 0%)" fill-opacity="1">
<use xlink:href="#glyph-0-3" x="137.558353" y="38.659287"/>
</g>
<g fill="rgb(0%, 0%, 0%)" fill-opacity="1">
<use xlink:href="#glyph-0-0" x="130.97505" y="128.322912"/>
</g>
<g fill="rgb(0%, 0%, 0%)" fill-opacity="1">
<use xlink:href="#glyph-1-0" x="135.207174" y="128.322912"/>
</g>
<g fill="rgb(0%, 0%, 0%)" fill-opacity="1">
<use xlink:href="#glyph-0-4" x="137.558353" y="128.322912"/>
</g>
<g fill="rgb(0%, 0%, 0%)" fill-opacity="1">
<use xlink:href="#glyph-0-0" x="130.97505" y="98.435037"/>
</g>
<g fill="rgb(0%, 0%, 0%)" fill-opacity="1">
<use xlink:href="#glyph-1-0" x="135.207174" y="98.435037"/>
</g>
<g fill="rgb(0%, 0%, 0%)" fill-opacity="1">
<use xlink:href="#glyph-0-4" x="137.558353" y="98.435037"/>
</g>
</svg>
