<?xml version="1.0" encoding="UTF-8"?>
<svg xmlns="http://www.w3.org/2000/svg" xmlns:xlink="http://www.w3.org/1999/xlink" width="238.469pt" height="144.126pt" viewBox="0 0 238.469 144.126">
<defs>
<g>
<g id="glyph-0-0">
<path d="M 4.234375 -1.265625 C 4.234375 -1.3125 4.1875 -1.328125 4.15625 -1.328125 C 4.125 -1.328125 3.78125 -1.28125 3.515625 -0.921875 C 3.28125 -0.59375 2.90625 -0.265625 2.3125 -0.265625 C 1.484375 -0.265625 0.84375 -0.890625 0.84375 -2.0625 C 0.84375 -2.65625 1.046875 -3.546875 1.5625 -4.265625 C 1.921875 -4.75 2.40625 -5.140625 3.234375 -5.140625 C 3.609375 -5.140625 3.78125 -5.015625 3.78125 -4.71875 C 3.78125 -4.4375 3.4375 -3.859375 3.375 -3.734375 C 3.328125 -3.671875 3.328125 -3.65625 3.328125 -3.640625 C 3.328125 -3.625 3.34375 -3.578125 3.421875 -3.578125 C 3.578125 -3.578125 3.90625 -3.765625 4 -3.890625 C 4.015625 -3.9375 4.484375 -4.6875 4.484375 -5.078125 C 4.484375 -5.53125 4.125 -5.609375 3.796875 -5.609375 C 2.609375 -5.609375 1.640625 -4.890625 1.203125 -4.40625 C 0.328125 -3.421875 0.125 -2.28125 0.125 -1.703125 C 0.125 -0.484375 0.828125 0.1875 1.765625 0.1875 C 3.109375 0.1875 4.234375 -1.078125 4.234375 -1.265625 Z M 4.234375 -1.265625 "/>
</g>
<g id="glyph-1-0">
<path d="M 2.65625 1.984375 C 2.71875 1.984375 2.8125 1.984375 2.8125 1.890625 C 2.8125 1.859375 2.8125 1.859375 2.703125 1.75 C 1.609375 0.71875 1.34375 -0.75 1.34375 -1.984375 C 1.34375 -4.28125 2.28125 -5.359375 2.6875 -5.734375 C 2.8125 -5.828125 2.8125 -5.84375 2.8125 -5.875 C 2.8125 -5.921875 2.78125 -5.96875 2.703125 -5.96875 C 2.578125 -5.96875 2.171875 -5.5625 2.109375 -5.5 C 1.046875 -4.375 0.828125 -2.953125 0.828125 -1.984375 C 0.828125 -0.203125 1.5625 1.234375 2.65625 1.984375 Z M 2.65625 1.984375 "/>
</g>
<g id="glyph-1-1">
<path d="M 2.46875 -1.984375 C 2.46875 -2.75 2.328125 -3.65625 1.84375 -4.59375 C 1.453125 -5.328125 0.71875 -5.96875 0.578125 -5.96875 C 0.5 -5.96875 0.484375 -5.921875 0.484375 -5.875 C 0.484375 -5.84375 0.484375 -5.828125 0.578125 -5.734375 C 1.6875 -4.671875 1.9375 -3.21875 1.9375 -1.984375 C 1.9375 0.296875 1 1.375 0.59375 1.75 C 0.484375 1.84375 0.484375 1.859375 0.484375 1.890625 C 0.484375 1.9375 0.5 1.984375 0.578125 1.984375 C 0.703125 1.984375 1.109375 1.578125 1.171875 1.515625 C 2.234375 0.390625 2.46875 -1.03125 2.46875 -1.984375 Z M 2.46875 -1.984375 "/>
</g>
<g id="glyph-1-2">
<path d="M 5.828125 -2.65625 C 5.9375 -2.65625 6.109375 -2.65625 6.109375 -2.84375 C 6.109375 -3.015625 5.90625 -3.015625 5.796875 -3.015625 L 0.78125 -3.015625 C 0.65625 -3.015625 0.46875 -3.015625 0.46875 -2.84375 C 0.46875 -2.65625 0.625 -2.65625 0.75 -2.65625 Z M 5.796875 -0.96875 C 5.90625 -0.96875 6.109375 -0.96875 6.109375 -1.140625 C 6.109375 -1.328125 5.9375 -1.328125 5.828125 -1.328125 L 0.75 -1.328125 C 0.625 -1.328125 0.46875 -1.328125 0.46875 -1.140625 C 0.46875 -0.96875 0.65625 -0.96875 0.78125 -0.96875 Z M 5.796875 -0.96875 "/>
</g>
<g id="glyph-1-3">
<path d="M 3.890625 -2.546875 C 3.890625 -3.390625 3.8125 -3.90625 3.546875 -4.421875 C 3.203125 -5.125 2.546875 -5.296875 2.109375 -5.296875 C 1.109375 -5.296875 0.734375 -4.546875 0.625 -4.328125 C 0.34375 -3.75 0.328125 -2.953125 0.328125 -2.546875 C 0.328125 -2.015625 0.34375 -1.21875 0.734375 -0.578125 C 1.09375 0.015625 1.6875 0.171875 2.109375 0.171875 C 2.5 0.171875 3.171875 0.046875 3.578125 -0.734375 C 3.875 -1.3125 3.890625 -2.03125 3.890625 -2.546875 Z M 2.109375 -0.0625 C 1.84375 -0.0625 1.296875 -0.1875 1.125 -1.015625 C 1.03125 -1.46875 1.03125 -2.21875 1.03125 -2.640625 C 1.03125 -3.1875 1.03125 -3.75 1.125 -4.1875 C 1.296875 -5 1.90625 -5.078125 2.109375 -5.078125 C 2.375 -5.078125 2.9375 -4.9375 3.09375 -4.21875 C 3.1875 -3.78125 3.1875 -3.171875 3.1875 -2.640625 C 3.1875 -2.171875 3.1875 -1.453125 3.09375 -1 C 2.921875 -0.171875 2.375 -0.0625 2.109375 -0.0625 Z M 2.109375 -0.0625 "/>
</g>
<g id="glyph-1-4">
<path d="M 2.5 -5.078125 C 2.5 -5.296875 2.484375 -5.296875 2.265625 -5.296875 C 1.9375 -4.984375 1.515625 -4.796875 0.765625 -4.796875 L 0.765625 -4.53125 C 0.984375 -4.53125 1.40625 -4.53125 1.875 -4.734375 L 1.875 -0.65625 C 1.875 -0.359375 1.84375 -0.265625 1.09375 -0.265625 L 0.8125 -0.265625 L 0.8125 0 C 1.140625 -0.03125 1.828125 -0.03125 2.1875 -0.03125 C 2.546875 -0.03125 3.234375 -0.03125 3.5625 0 L 3.5625 -0.265625 L 3.28125 -0.265625 C 2.53125 -0.265625 2.5 -0.359375 2.5 -0.65625 Z M 2.5 -5.078125 "/>
</g>
<g id="glyph-2-0">
<path d="M 3.125 -3.03125 C 3.046875 -3.171875 2.828125 -3.515625 2.328125 -3.515625 C 1.390625 -3.515625 0.34375 -2.40625 0.34375 -1.234375 C 0.34375 -0.390625 0.875 0.078125 1.484375 0.078125 C 2 0.078125 2.4375 -0.328125 2.578125 -0.484375 C 2.71875 0.0625 3.265625 0.078125 3.359375 0.078125 C 3.734375 0.078125 3.90625 -0.21875 3.96875 -0.359375 C 4.140625 -0.640625 4.25 -1.109375 4.25 -1.140625 C 4.25 -1.1875 4.21875 -1.25 4.125 -1.25 C 4.03125 -1.25 4.015625 -1.1875 3.953125 -1 C 3.84375 -0.5625 3.703125 -0.140625 3.390625 -0.140625 C 3.203125 -0.140625 3.125 -0.296875 3.125 -0.515625 C 3.125 -0.65625 3.203125 -0.921875 3.25 -1.125 C 3.296875 -1.328125 3.421875 -1.796875 3.453125 -1.9375 L 3.609375 -2.546875 C 3.65625 -2.734375 3.734375 -3.078125 3.734375 -3.109375 C 3.734375 -3.296875 3.578125 -3.359375 3.484375 -3.359375 C 3.359375 -3.359375 3.15625 -3.28125 3.125 -3.03125 Z M 2.578125 -0.859375 C 2.1875 -0.3125 1.765625 -0.140625 1.515625 -0.140625 C 1.140625 -0.140625 0.96875 -0.484375 0.96875 -0.890625 C 0.96875 -1.265625 1.171875 -2.125 1.359375 -2.46875 C 1.578125 -2.953125 1.96875 -3.296875 2.34375 -3.296875 C 2.859375 -3.296875 3.015625 -2.703125 3.015625 -2.609375 C 3.015625 -2.578125 2.8125 -1.796875 2.765625 -1.59375 C 2.65625 -1.21875 2.65625 -1.203125 2.578125 -0.859375 Z M 2.578125 -0.859375 "/>
</g>
<g id="glyph-2-1">
<path d="M 1.9375 -5.296875 C 1.953125 -5.3125 1.96875 -5.40625 1.96875 -5.421875 C 1.96875 -5.453125 1.9375 -5.53125 1.84375 -5.53125 C 1.8125 -5.53125 1.5625 -5.5 1.390625 -5.484375 L 0.9375 -5.453125 C 0.765625 -5.4375 0.6875 -5.4375 0.6875 -5.296875 C 0.6875 -5.171875 0.796875 -5.171875 0.890625 -5.171875 C 1.28125 -5.171875 1.28125 -5.125 1.28125 -5.0625 C 1.28125 -5.015625 1.1875 -4.6875 1.140625 -4.515625 L 0.453125 -1.734375 C 0.390625 -1.46875 0.390625 -1.34375 0.390625 -1.21875 C 0.390625 -0.390625 0.890625 0.078125 1.5 0.078125 C 2.484375 0.078125 3.5 -1.046875 3.5 -2.203125 C 3.5 -3 3 -3.515625 2.359375 -3.515625 C 1.90625 -3.515625 1.5625 -3.234375 1.390625 -3.078125 Z M 1.5 -0.140625 C 1.21875 -0.140625 0.9375 -0.359375 0.9375 -0.953125 C 0.9375 -1.15625 0.96875 -1.359375 1.0625 -1.75 C 1.109375 -1.96875 1.171875 -2.203125 1.234375 -2.4375 C 1.28125 -2.578125 1.28125 -2.59375 1.375 -2.703125 C 1.640625 -3.046875 2 -3.296875 2.328125 -3.296875 C 2.734375 -3.296875 2.890625 -2.90625 2.890625 -2.546875 C 2.890625 -2.25 2.703125 -1.390625 2.46875 -0.921875 C 2.265625 -0.5 1.875 -0.140625 1.5 -0.140625 Z M 1.5 -0.140625 "/>
</g>
<g id="glyph-2-2">
<path d="M 3.265625 -3.046875 C 2.9375 -3.015625 2.828125 -2.765625 2.828125 -2.609375 C 2.828125 -2.375 3.03125 -2.3125 3.140625 -2.3125 C 3.171875 -2.3125 3.578125 -2.34375 3.578125 -2.828125 C 3.578125 -3.3125 3.0625 -3.515625 2.578125 -3.515625 C 1.453125 -3.515625 0.34375 -2.421875 0.34375 -1.296875 C 0.34375 -0.546875 0.875 0.078125 1.75 0.078125 C 3.015625 0.078125 3.671875 -0.71875 3.671875 -0.828125 C 3.671875 -0.90625 3.59375 -0.953125 3.546875 -0.953125 C 3.5 -0.953125 3.46875 -0.9375 3.4375 -0.890625 C 2.8125 -0.140625 1.90625 -0.140625 1.765625 -0.140625 C 1.34375 -0.140625 1 -0.40625 1 -1.015625 C 1 -1.359375 1.15625 -2.203125 1.53125 -2.703125 C 1.875 -3.140625 2.28125 -3.296875 2.59375 -3.296875 C 2.6875 -3.296875 3.046875 -3.28125 3.265625 -3.046875 Z M 3.265625 -3.046875 "/>
</g>
<g id="glyph-2-3">
<path d="M 4.28125 -5.296875 C 4.296875 -5.3125 4.3125 -5.40625 4.3125 -5.421875 C 4.3125 -5.453125 4.28125 -5.53125 4.1875 -5.53125 C 4.15625 -5.53125 3.90625 -5.5 3.734375 -5.484375 L 3.28125 -5.453125 C 3.109375 -5.4375 3.03125 -5.4375 3.03125 -5.296875 C 3.03125 -5.171875 3.140625 -5.171875 3.234375 -5.171875 C 3.625 -5.171875 3.625 -5.125 3.625 -5.0625 C 3.625 -5.015625 3.546875 -4.75 3.515625 -4.59375 L 3.125 -3.03125 C 3.046875 -3.171875 2.828125 -3.515625 2.328125 -3.515625 C 1.390625 -3.515625 0.34375 -2.40625 0.34375 -1.234375 C 0.34375 -0.390625 0.875 0.078125 1.484375 0.078125 C 2 0.078125 2.4375 -0.328125 2.578125 -0.484375 C 2.71875 0.0625 3.265625 0.078125 3.359375 0.078125 C 3.734375 0.078125 3.90625 -0.21875 3.96875 -0.359375 C 4.140625 -0.640625 4.25 -1.109375 4.25 -1.140625 C 4.25 -1.1875 4.21875 -1.25 4.125 -1.25 C 4.03125 -1.25 4.015625 -1.1875 3.953125 -1 C 3.84375 -0.5625 3.703125 -0.140625 3.390625 -0.140625 C 3.203125 -0.140625 3.125 -0.296875 3.125 -0.515625 C 3.125 -0.671875 3.15625 -0.75 3.171875 -0.859375 Z M 2.578125 -0.859375 C 2.1875 -0.3125 1.765625 -0.140625 1.515625 -0.140625 C 1.140625 -0.140625 0.96875 -0.484375 0.96875 -0.890625 C 0.96875 -1.265625 1.171875 -2.125 1.359375 -2.46875 C 1.578125 -2.953125 1.96875 -3.296875 2.34375 -3.296875 C 2.859375 -3.296875 3.015625 -2.703125 3.015625 -2.609375 C 3.015625 -2.578125 2.8125 -1.796875 2.765625 -1.59375 C 2.65625 -1.21875 2.65625 -1.203125 2.578125 -0.859375 Z M 2.578125 -0.859375 "/>
</g>
<g id="glyph-2-4">
<path d="M 1.609375 -1.8125 C 1.78125 -1.8125 2.375 -1.828125 2.796875 -1.96875 C 3.484375 -2.21875 3.515625 -2.6875 3.515625 -2.8125 C 3.515625 -3.265625 3.09375 -3.515625 2.578125 -3.515625 C 1.671875 -3.515625 0.390625 -2.8125 0.390625 -1.390625 C 0.390625 -0.578125 0.890625 0.078125 1.765625 0.078125 C 3 0.078125 3.671875 -0.71875 3.671875 -0.828125 C 3.671875 -0.90625 3.59375 -0.953125 3.546875 -0.953125 C 3.5 -0.953125 3.46875 -0.9375 3.4375 -0.890625 C 2.8125 -0.140625 1.90625 -0.140625 1.78125 -0.140625 C 1.1875 -0.140625 1.015625 -0.640625 1.015625 -1.078125 C 1.015625 -1.328125 1.09375 -1.6875 1.125 -1.8125 Z M 1.1875 -2.046875 C 1.4375 -3.015625 2.171875 -3.296875 2.578125 -3.296875 C 2.890625 -3.296875 3.203125 -3.125 3.203125 -2.8125 C 3.203125 -2.046875 1.890625 -2.046875 1.546875 -2.046875 Z M 1.1875 -2.046875 "/>
</g>
</g>
</defs>
<path fill-rule="nonzero" fill="rgb(50%, 50%, 50%)" fill-opacity="1" stroke-width="0.3985" stroke-linecap="butt" stroke-linejoin="miter" stroke="rgb(50%, 50%, 50%)" stroke-opacity="1" stroke-miterlimit="10" d="M 2.323125 2.324719 L -2.325312 2.324719 L -2.325312 -2.323719 L 2.323125 -2.323719 Z M 2.323125 2.324719 " transform="matrix(1, 0, 0, -1, 7.505, 72.063)"/>
<path fill-rule="nonzero" fill="rgb(50%, 50%, 50%)" fill-opacity="1" stroke-width="0.3985" stroke-linecap="butt" stroke-linejoin="miter" stroke="rgb(50%, 50%, 50%)" stroke-opacity="1" stroke-miterlimit="10" d="M 44.162969 -14.944812 C 44.162969 -14.034656 43.428594 -13.300281 42.518437 -13.300281 C 41.612187 -13.300281 40.877812 -14.034656 40.877812 -14.944812 C 40.877812 -15.851062 41.612187 -16.589344 42.518437 -16.589344 C 43.428594 -16.589344 44.162969 -15.851062 44.162969 -14.944812 Z M 44.162969 -14.944812 " transform="matrix(1, 0, 0, -1, 7.505, 72.063)"/>
<path fill="none" stroke-width="0.3985" stroke-linecap="butt" stroke-linejoin="miter" stroke="rgb(0%, 0%, 0%)" stroke-opacity="1" stroke-miterlimit="10" d="M 2.46375 -0.866687 L 40.905156 -14.3745 " transform="matrix(1, 0, 0, -1, 7.505, 72.063)"/>
<path fill-rule="nonzero" fill="rgb(50%, 50%, 50%)" fill-opacity="1" stroke-width="0.3985" stroke-linecap="butt" stroke-linejoin="miter" stroke="rgb(50%, 50%, 50%)" stroke-opacity="1" stroke-miterlimit="10" d="M 86.6825 -29.890125 C 86.6825 -28.979969 85.948125 -28.245594 85.041875 -28.245594 C 84.131719 -28.245594 83.397344 -28.979969 83.397344 -29.890125 C 83.397344 -30.796375 84.131719 -31.53075 85.041875 -31.53075 C 85.948125 -31.53075 86.6825 -30.796375 86.6825 -29.890125 Z M 86.6825 -29.890125 " transform="matrix(1, 0, 0, -1, 7.505, 72.063)"/>
<path fill="none" stroke-width="0.3985" stroke-linecap="butt" stroke-linejoin="miter" stroke="rgb(0%, 0%, 0%)" stroke-opacity="1" stroke-miterlimit="10" d="M 44.135625 -15.511219 L 83.424688 -29.319812 " transform="matrix(1, 0, 0, -1, 7.505, 72.063)"/>
<path fill-rule="nonzero" fill="rgb(50%, 50%, 50%)" fill-opacity="1" stroke-width="0.3985" stroke-linecap="butt" stroke-linejoin="miter" stroke="rgb(50%, 50%, 50%)" stroke-opacity="1" stroke-miterlimit="10" d="M 129.205938 -44.831531 C 129.205938 -43.925281 128.467656 -43.187 127.561406 -43.187 C 126.65125 -43.187 125.916875 -43.925281 125.916875 -44.831531 C 125.916875 -45.741687 126.65125 -46.476062 127.561406 -46.476062 C 128.467656 -46.476062 129.205938 -45.741687 129.205938 -44.831531 Z M 129.205938 -44.831531 " transform="matrix(1, 0, 0, -1, 7.505, 72.063)"/>
<path fill="none" stroke-width="0.3985" stroke-linecap="butt" stroke-linejoin="miter" stroke="rgb(0%, 0%, 0%)" stroke-opacity="1" stroke-miterlimit="10" d="M 86.655156 -30.456531 L 125.944219 -44.265125 " transform="matrix(1, 0, 0, -1, 7.505, 72.063)"/>
<path fill-rule="nonzero" fill="rgb(50%, 50%, 50%)" fill-opacity="1" stroke-width="0.3985" stroke-linecap="butt" stroke-linejoin="miter" stroke="rgb(50%, 50%, 50%)" stroke-opacity="1" stroke-miterlimit="10" d="M 173.37 -59.776844 C 173.37 -57.960437 171.897344 -56.487781 170.080938 -56.487781 C 168.264531 -56.487781 166.791875 -57.960437 166.791875 -59.776844 C 166.791875 -61.59325 168.264531 -63.065906 170.080938 -63.065906 C 171.897344 -63.065906 173.37 -61.59325 173.37 -59.776844 Z M 173.37 -59.776844 " transform="matrix(1, 0, 0, -1, 7.505, 72.063)"/>
<path fill="none" stroke-width="0.3985" stroke-linecap="butt" stroke-linejoin="miter" stroke="rgb(0%, 0%, 0%)" stroke-opacity="1" stroke-miterlimit="10" d="M 129.178594 -45.401844 L 166.846563 -58.640125 " transform="matrix(1, 0, 0, -1, 7.505, 72.063)"/>
<path fill-rule="nonzero" fill="rgb(50%, 50%, 50%)" fill-opacity="1" stroke-width="0.3985" stroke-linecap="butt" stroke-linejoin="miter" stroke="rgb(50%, 50%, 50%)" stroke-opacity="1" stroke-miterlimit="10" d="M 173.37 -29.890125 C 173.37 -28.073719 171.897344 -26.601062 170.080938 -26.601062 C 168.264531 -26.601062 166.791875 -28.073719 166.791875 -29.890125 C 166.791875 -31.702625 168.264531 -33.175281 170.080938 -33.175281 C 171.897344 -33.175281 173.37 -31.702625 173.37 -29.890125 Z M 173.37 -29.890125 " transform="matrix(1, 0, 0, -1, 7.505, 72.063)"/>
<path fill="none" stroke-width="0.3985" stroke-linecap="butt" stroke-linejoin="miter" stroke="rgb(0%, 0%, 0%)" stroke-opacity="1" stroke-miterlimit="10" d="M 129.178594 -44.265125 L 166.846563 -31.022937 " transform="matrix(1, 0, 0, -1, 7.505, 72.063)"/>
<path fill="none" stroke-width="0.3985" stroke-linecap="butt" stroke-linejoin="miter" stroke="rgb(0%, 0%, 0%)" stroke-opacity="1" stroke-miterlimit="10" d="M 86.655156 -29.319812 L 127.561406 -14.944812 " transform="matrix(1, 0, 0, -1, 7.505, 72.063)"/>
<path fill-rule="nonzero" fill="rgb(50%, 50%, 50%)" fill-opacity="1" stroke-width="0.3985" stroke-linecap="butt" stroke-linejoin="miter" stroke="rgb(50%, 50%, 50%)" stroke-opacity="1" stroke-miterlimit="10" d="M 173.37 0.0005 C 173.37 1.816906 171.897344 3.285656 170.080938 3.285656 C 168.264531 3.285656 166.791875 1.816906 166.791875 0.0005 C 166.791875 -1.815906 168.264531 -3.288562 170.080938 -3.288562 C 171.897344 -3.288562 173.37 -1.815906 173.37 0.0005 Z M 173.37 0.0005 " transform="matrix(1, 0, 0, -1, 7.505, 72.063)"/>
<path fill="none" stroke-width="0.3985" stroke-linecap="butt" stroke-linejoin="miter" stroke="rgb(0%, 0%, 0%)" stroke-opacity="1" stroke-miterlimit="10" d="M 127.561406 -14.944812 L 166.846563 -1.136219 " transform="matrix(1, 0, 0, -1, 7.505, 72.063)"/>
<path fill="none" stroke-width="0.3985" stroke-linecap="butt" stroke-linejoin="miter" stroke="rgb(0%, 0%, 0%)" stroke-opacity="1" stroke-miterlimit="10" d="M 44.135625 -14.3745 L 85.041875 0.0005 " transform="matrix(1, 0, 0, -1, 7.505, 72.063)"/>
<path fill="none" stroke-width="0.3985" stroke-linecap="butt" stroke-linejoin="miter" stroke="rgb(0%, 0%, 0%)" stroke-opacity="1" stroke-miterlimit="10" d="M 85.041875 0.0005 L 127.561406 14.945813 " transform="matrix(1, 0, 0, -1, 7.505, 72.063)"/>
<path fill-rule="nonzero" fill="rgb(50%, 50%, 50%)" fill-opacity="1" stroke-width="0.3985" stroke-linecap="butt" stroke-linejoin="miter" stroke="rgb(50%, 50%, 50%)" stroke-opacity="1" stroke-miterlimit="10" d="M 173.37 29.887219 C 173.37 31.703625 171.897344 33.176281 170.080938 33.176281 C 168.264531 33.176281 166.791875 31.703625 166.791875 29.887219 C 166.791875 28.074719 168.264531 26.602063 170.080938 26.602063 C 171.897344 26.602063 173.37 28.074719 173.37 29.887219 Z M 173.37 29.887219 " transform="matrix(1, 0, 0, -1, 7.505, 72.063)"/>
<path fill="none" stroke-width="0.3985" stroke-linecap="butt" stroke-linejoin="miter" stroke="rgb(0%, 0%, 0%)" stroke-opacity="1" stroke-miterlimit="10" d="M 127.561406 14.945813 L 166.846563 28.7505 " transform="matrix(1, 0, 0, -1, 7.505, 72.063)"/>
<path fill="none" stroke-width="0.3985" stroke-linecap="butt" stroke-linejoin="miter" stroke="rgb(0%, 0%, 0%)" stroke-opacity="1" stroke-miterlimit="10" d="M 2.46375 0.863781 L 42.518437 14.945813 " transform="matrix(1, 0, 0, -1, 7.505, 72.063)"/>
<path fill="none" stroke-width="0.3985" stroke-linecap="butt" stroke-linejoin="miter" stroke="rgb(0%, 0%, 0%)" stroke-opacity="1" stroke-miterlimit="10" d="M 42.518437 14.945813 L 85.041875 29.887219 " transform="matrix(1, 0, 0, -1, 7.505, 72.063)"/>
<path fill="none" stroke-width="0.3985" stroke-linecap="butt" stroke-linejoin="miter" stroke="rgb(0%, 0%, 0%)" stroke-opacity="1" stroke-miterlimit="10" d="M 85.041875 29.887219 L 127.561406 44.832531 " transform="matrix(1, 0, 0, -1, 7.505, 72.063)"/>
<path fill-rule="nonzero" fill="rgb(50%, 50%, 50%)" fill-opacity="1" stroke-width="0.3985" stroke-linecap="butt" stroke-linejoin="miter" stroke="rgb(50%, 50%, 50%)" stroke-opacity="1" stroke-miterlimit="10" d="M 173.37 59.777844 C 173.37 61.59425 171.897344 63.063 170.080938 63.063 C 168.264531 63.063 166.791875 61.59425 166.791875 59.777844 C 166.791875 57.961438 168.264531 56.488781 170.080938 56.488781 C 171.897344 56.488781 173.37 57.961438 173.37 59.777844 Z M 173.37 59.777844 " transform="matrix(1, 0, 0, -1, 7.505, 72.063)"/>
<path fill="none" stroke-width="0.3985" stroke-linecap="butt" stroke-linejoin="miter" stroke="rgb(0%, 0%, 0%)" stroke-opacity="1" stroke-miterlimit="10" d="M 127.561406 44.832531 L 166.846563 58.641125 " transform="matrix(1, 0, 0, -1, 7.505, 72.063)"/>
<g fill="rgb(0%, 0%, 0%)" fill-opacity="1">
<use xlink:href="#glyph-0-0" x="186.085" y="14.28"/>
</g>
<g fill="rgb(0%, 0%, 0%)" fill-opacity="1">
<use xlink:href="#glyph-1-0" x="190.995" y="14.28"/>
</g>
<g fill="rgb(0%, 0%, 0%)" fill-opacity="1">
<use xlink:href="#glyph-2-0" x="194.288" y="14.28"/>
</g>
<g fill="rgb(0%, 0%, 0%)" fill-opacity="1">
<use xlink:href="#glyph-1-1" x="198.786" y="14.28"/>
</g>
<g fill="rgb(0%, 0%, 0%)" fill-opacity="1">
<use xlink:href="#glyph-1-2" x="204.430425" y="14.28"/>
</g>
<g fill="rgb(0%, 0%, 0%)" fill-opacity="1">
<use xlink:href="#glyph-1-3" x="213.368095" y="14.28"/>
</g>
<g fill="rgb(0%, 0%, 0%)" fill-opacity="1">
<use xlink:href="#glyph-0-0" x="186.085" y="74.056"/>
</g>
<g fill="rgb(0%, 0%, 0%)" fill-opacity="1">
<use xlink:href="#glyph-1-0" x="190.995" y="74.056"/>
</g>
<g fill="rgb(0%, 0%, 0%)" fill-opacity="1">
<use xlink:href="#glyph-2-1" x="194.288" y="74.056"/>
</g>
<g fill="rgb(0%, 0%, 0%)" fill-opacity="1">
<use xlink:href="#glyph-1-1" x="197.911" y="74.056"/>
</g>
<g fill="rgb(0%, 0%, 0%)" fill-opacity="1">
<use xlink:href="#glyph-1-2" x="203.555425" y="74.056"/>
</g>
<g fill="rgb(0%, 0%, 0%)" fill-opacity="1">
<use xlink:href="#glyph-1-4" x="212.493095" y="74.056"/>
<use xlink:href="#glyph-1-4" x="216.727609" y="74.056"/>
<use xlink:href="#glyph-1-3" x="220.962123" y="74.056"/>
</g>
<g fill="rgb(0%, 0%, 0%)" fill-opacity="1">
<use xlink:href="#glyph-0-0" x="186.085" y="44.168"/>
</g>
<g fill="rgb(0%, 0%, 0%)" fill-opacity="1">
<use xlink:href="#glyph-1-0" x="190.995" y="44.168"/>
</g>
<g fill="rgb(0%, 0%, 0%)" fill-opacity="1">
<use xlink:href="#glyph-2-2" x="194.288" y="44.168"/>
</g>
<g fill="rgb(0%, 0%, 0%)" fill-opacity="1">
<use xlink:href="#glyph-1-1" x="197.956" y="44.168"/>
</g>
<g fill="rgb(0%, 0%, 0%)" fill-opacity="1">
<use xlink:href="#glyph-1-2" x="203.600425" y="44.168"/>
</g>
<g fill="rgb(0%, 0%, 0%)" fill-opacity="1">
<use xlink:href="#glyph-1-4" x="212.538095" y="44.168"/>
<use xlink:href="#glyph-1-3" x="216.772609" y="44.168"/>
</g>
<g fill="rgb(0%, 0%, 0%)" fill-opacity="1">
<use xlink:href="#glyph-0-0" x="186.085" y="133.832"/>
</g>
<g fill="rgb(0%, 0%, 0%)" fill-opacity="1">
<use xlink:href="#glyph-1-0" x="190.995" y="133.832"/>
</g>
<g fill="rgb(0%, 0%, 0%)" fill-opacity="1">
<use xlink:href="#glyph-2-3" x="194.288" y="133.832"/>
</g>
<g fill="rgb(0%, 0%, 0%)" fill-opacity="1">
<use xlink:href="#glyph-1-1" x="198.646" y="133.832"/>
</g>
<g fill="rgb(0%, 0%, 0%)" fill-opacity="1">
<use xlink:href="#glyph-1-2" x="204.290425" y="133.832"/>
</g>
<g fill="rgb(0%, 0%, 0%)" fill-opacity="1">
<use xlink:href="#glyph-1-4" x="213.228095" y="133.832"/>
<use xlink:href="#glyph-1-4" x="217.462609" y="133.832"/>
<use xlink:href="#glyph-1-4" x="221.697123" y="133.832"/>
<use xlink:href="#glyph-1-3" x="225.931637" y="133.832"/>
</g>
<g fill="rgb(0%, 0%, 0%)" fill-opacity="1">
<use xlink:href="#glyph-0-0" x="186.085" y="103.944"/>
</g>
<g fill="rgb(0%, 0%, 0%)" fill-opacity="1">
<use xlink:href="#glyph-1-0" x="190.995" y="103.944"/>
</g>
<g fill="rgb(0%, 0%, 0%)" fill-opacity="1">
<use xlink:href="#glyph-2-4" x="194.288" y="103.944"/>
</g>
<g fill="rgb(0%, 0%, 0%)" fill-opacity="1">
<use xlink:href="#glyph-1-1" x="198.217" y="103.944"/>
</g>
<g fill="rgb(0%, 0%, 0%)" fill-opacity="1">
<use xlink:href="#glyph-1-2" x="203.861425" y="103.944"/>
</g>
<g fill="rgb(0%, 0%, 0%)" fill-opacity="1">
<use xlink:href="#glyph-1-4" x="212.799095" y="103.944"/>
<use xlink:href="#glyph-1-4" x="217.033609" y="103.944"/>
<use xlink:href="#glyph-1-4" x="221.268123" y="103.944"/>
<use xlink:href="#glyph-1-4" x="225.502637" y="103.944"/>
</g>
<g fill="rgb(0%, 0%, 0%)" fill-opacity="1">
<use xlink:href="#glyph-1-3" x="90.427" y="37.781"/>
</g>
<g fill="rgb(0%, 0%, 0%)" fill-opacity="1">
<use xlink:href="#glyph-1-3" x="113.104" y="60.458"/>
</g>
<g fill="rgb(0%, 0%, 0%)" fill-opacity="1">
<use xlink:href="#glyph-1-3" x="132.947" y="83.135"/>
</g>
<g fill="rgb(0%, 0%, 0%)" fill-opacity="1">
<use xlink:href="#glyph-1-3" x="154.207" y="105.813"/>
</g>
<g fill="rgb(0%, 0%, 0%)" fill-opacity="1">
<use xlink:href="#glyph-1-4" x="25.23" y="88.805"/>
</g>
<g fill="rgb(0%, 0%, 0%)" fill-opacity="1">
<use xlink:href="#glyph-1-4" x="67.75" y="102.978"/>
</g>
<g fill="rgb(0%, 0%, 0%)" fill-opacity="1">
<use xlink:href="#glyph-1-4" x="107.435" y="117.151"/>
</g>
<g fill="rgb(0%, 0%, 0%)" fill-opacity="1">
<use xlink:href="#glyph-1-4" x="154.207" y="131.324"/>
</g>
</svg>
