<?xml version="1.0" encoding="UTF-8"?>
<svg xmlns="http://www.w3.org/2000/svg" xmlns:xlink="http://www.w3.org/1999/xlink" width="227.864pt" height="136.891pt" viewBox="0 0 227.864 136.891">
<defs>
<g>
<g id="glyph-0-0">
<path d="M 4.25 -2.875 C 4.25 -3.46875 4.21875 -4.25 3.90625 -4.921875 C 3.5 -5.765625 2.828125 -5.96875 2.3125 -5.96875 C 1.765625 -5.96875 1.078125 -5.765625 0.6875 -4.890625 C 0.40625 -4.28125 0.359375 -3.546875 0.359375 -2.875 C 0.359375 -2.28125 0.375 -1.421875 0.765625 -0.703125 C 1.1875 0.046875 1.890625 0.203125 2.296875 0.203125 C 2.875 0.203125 3.546875 -0.046875 3.921875 -0.875 C 4.1875 -1.484375 4.25 -2.15625 4.25 -2.875 Z M 2.3125 -0.03125 C 2.03125 -0.03125 1.390625 -0.15625 1.21875 -1.171875 C 1.125 -1.6875 1.125 -2.46875 1.125 -2.984375 C 1.125 -3.59375 1.125 -4.296875 1.234375 -4.796875 C 1.421875 -5.59375 1.984375 -5.75 2.296875 -5.75 C 2.640625 -5.75 3.203125 -5.5625 3.375 -4.734375 C 3.46875 -4.25 3.46875 -3.546875 3.46875 -2.984375 C 3.46875 -2.421875 3.46875 -1.671875 3.375 -1.140625 C 3.1875 -0.109375 2.53125 -0.03125 2.3125 -0.03125 Z M 2.3125 -0.03125 "/>
</g>
<g id="glyph-0-1">
<path d="M 2.71875 -5.734375 C 2.71875 -5.953125 2.71875 -5.96875 2.5 -5.96875 C 1.9375 -5.40625 1.109375 -5.40625 0.828125 -5.40625 L 0.828125 -5.125 C 1 -5.125 1.546875 -5.125 2.03125 -5.359375 L 2.03125 -0.71875 C 2.03125 -0.390625 2.015625 -0.28125 1.171875 -0.28125 L 0.890625 -0.28125 L 0.890625 0 C 1.203125 -0.03125 2.015625 -0.03125 2.375 -0.03125 C 2.75 -0.03125 3.546875 -0.03125 3.875 0 L 3.875 -0.28125 L 3.59375 -0.28125 C 2.75 -0.28125 2.71875 -0.390625 2.71875 -0.71875 Z M 2.71875 -5.734375 "/>
</g>
<g id="glyph-0-2">
<path d="M 4.140625 -1.59375 L 3.890625 -1.59375 C 3.875 -1.46875 3.796875 -0.9375 3.6875 -0.796875 C 3.625 -0.71875 3.015625 -0.71875 2.828125 -0.71875 L 1.234375 -0.71875 L 2.125 -1.5625 C 3.59375 -2.828125 4.140625 -3.3125 4.140625 -4.21875 C 4.140625 -5.25 3.296875 -5.96875 2.1875 -5.96875 C 1.15625 -5.96875 0.453125 -5.15625 0.453125 -4.34375 C 0.453125 -3.890625 0.84375 -3.84375 0.921875 -3.84375 C 1.125 -3.84375 1.390625 -3.984375 1.390625 -4.3125 C 1.390625 -4.578125 1.203125 -4.78125 0.921875 -4.78125 C 0.875 -4.78125 0.859375 -4.78125 0.8125 -4.765625 C 1.03125 -5.40625 1.609375 -5.6875 2.09375 -5.6875 C 3 -5.6875 3.3125 -4.84375 3.3125 -4.21875 C 3.3125 -3.3125 2.625 -2.5625 2.203125 -2.09375 L 0.5625 -0.328125 C 0.453125 -0.21875 0.453125 -0.203125 0.453125 0 L 3.890625 0 Z M 4.140625 -1.59375 "/>
</g>
<g id="glyph-0-3">
<path d="M 2.734375 -3.15625 C 3.5625 -3.46875 3.96875 -4.125 3.96875 -4.75 C 3.96875 -5.4375 3.203125 -5.96875 2.265625 -5.96875 C 1.34375 -5.96875 0.640625 -5.4375 0.640625 -4.765625 C 0.640625 -4.46875 0.828125 -4.296875 1.09375 -4.296875 C 1.359375 -4.296875 1.546875 -4.484375 1.546875 -4.75 C 1.546875 -5.0625 1.328125 -5.1875 1.015625 -5.1875 C 1.25 -5.5625 1.796875 -5.75 2.25 -5.75 C 2.984375 -5.75 3.125 -5.15625 3.125 -4.734375 C 3.125 -4.46875 3.078125 -4.03125 2.859375 -3.6875 C 2.578125 -3.296875 2.265625 -3.28125 2 -3.25 C 1.78125 -3.234375 1.765625 -3.234375 1.6875 -3.234375 C 1.609375 -3.234375 1.53125 -3.21875 1.53125 -3.125 C 1.53125 -3 1.609375 -3 1.765625 -3 L 2.171875 -3 C 2.953125 -3 3.296875 -2.375 3.296875 -1.53125 C 3.296875 -0.375 2.6875 -0.046875 2.234375 -0.046875 C 2.0625 -0.046875 1.1875 -0.09375 0.796875 -0.765625 C 1.109375 -0.71875 1.359375 -0.9375 1.359375 -1.25 C 1.359375 -1.546875 1.140625 -1.734375 0.875 -1.734375 C 0.65625 -1.734375 0.390625 -1.59375 0.390625 -1.21875 C 0.390625 -0.421875 1.21875 0.203125 2.265625 0.203125 C 3.375 0.203125 4.21875 -0.609375 4.21875 -1.53125 C 4.21875 -2.3125 3.59375 -2.96875 2.734375 -3.15625 Z M 2.734375 -3.15625 "/>
</g>
<g id="glyph-0-4">
<path d="M 0.265625 -1.765625 L 0.265625 -1.484375 L 2.703125 -1.484375 L 2.703125 -0.703125 C 2.703125 -0.375 2.6875 -0.28125 2.015625 -0.28125 L 1.8125 -0.28125 L 1.8125 0 C 2.375 -0.03125 3 -0.03125 3.0625 -0.03125 C 3.109375 -0.03125 3.765625 -0.03125 4.328125 0 L 4.328125 -0.28125 L 4.125 -0.28125 C 3.453125 -0.28125 3.421875 -0.375 3.421875 -0.703125 L 3.421875 -1.484375 L 4.34375 -1.484375 L 4.34375 -1.765625 L 3.421875 -1.765625 L 3.421875 -5.828125 C 3.421875 -6.015625 3.421875 -6.078125 3.25 -6.078125 C 3.140625 -6.078125 3.140625 -6.0625 3.0625 -5.9375 Z M 0.546875 -1.765625 L 2.765625 -5.078125 L 2.765625 -1.765625 Z M 0.546875 -1.765625 "/>
</g>
<g id="glyph-0-5">
<path d="M 0.9375 -3.09375 C 0.9375 -2.9375 0.9375 -2.828125 1.0625 -2.828125 C 1.125 -2.828125 1.15625 -2.875 1.203125 -2.953125 C 1.484375 -3.328125 1.90625 -3.546875 2.375 -3.546875 C 3.34375 -3.546875 3.34375 -2.15625 3.34375 -1.84375 C 3.34375 -1.5625 3.34375 -1 3.078125 -0.59375 C 2.84375 -0.21875 2.46875 -0.046875 2.109375 -0.046875 C 1.59375 -0.046875 0.984375 -0.390625 0.765625 -1.046875 C 0.78125 -1.046875 0.828125 -1.03125 0.890625 -1.03125 C 1.078125 -1.03125 1.34375 -1.140625 1.34375 -1.46875 C 1.34375 -1.75 1.140625 -1.90625 0.890625 -1.90625 C 0.703125 -1.90625 0.453125 -1.796875 0.453125 -1.4375 C 0.453125 -0.625 1.140625 0.203125 2.140625 0.203125 C 3.21875 0.203125 4.140625 -0.6875 4.140625 -1.796875 C 4.140625 -2.875 3.375 -3.765625 2.390625 -3.765625 C 1.96875 -3.765625 1.53125 -3.625 1.203125 -3.296875 L 1.203125 -5.0625 C 1.484375 -4.984375 1.765625 -4.9375 2.03125 -4.9375 C 3.140625 -4.9375 3.78125 -5.734375 3.78125 -5.859375 C 3.78125 -5.9375 3.734375 -5.96875 3.6875 -5.96875 C 3.671875 -5.96875 3.65625 -5.96875 3.5625 -5.921875 C 3.140625 -5.765625 2.734375 -5.6875 2.359375 -5.6875 C 1.96875 -5.6875 1.5625 -5.765625 1.15625 -5.921875 C 1.0625 -5.96875 1.046875 -5.96875 1.046875 -5.96875 C 0.9375 -5.96875 0.9375 -5.890625 0.9375 -5.734375 Z M 0.9375 -3.09375 "/>
</g>
<g id="glyph-0-6">
<path d="M 1.203125 -2.96875 C 1.203125 -3.890625 1.296875 -4.390625 1.546875 -4.859375 C 1.71875 -5.234375 2.15625 -5.75 2.828125 -5.75 C 3 -5.75 3.421875 -5.71875 3.625 -5.390625 C 3.296875 -5.390625 3.140625 -5.21875 3.140625 -4.984375 C 3.140625 -4.75 3.3125 -4.5625 3.5625 -4.5625 C 3.8125 -4.5625 3.984375 -4.734375 3.984375 -5 C 3.984375 -5.5 3.625 -5.96875 2.8125 -5.96875 C 1.65625 -5.96875 0.390625 -4.828125 0.390625 -2.828125 C 0.390625 -0.40625 1.484375 0.203125 2.328125 0.203125 C 3.3125 0.203125 4.21875 -0.640625 4.21875 -1.828125 C 4.21875 -2.953125 3.390625 -3.828125 2.375 -3.828125 C 1.84375 -3.828125 1.453125 -3.5 1.203125 -2.96875 Z M 2.3125 -0.046875 C 1.796875 -0.046875 1.5 -0.46875 1.40625 -0.734375 C 1.234375 -1.140625 1.21875 -1.890625 1.21875 -2.03125 C 1.21875 -2.625 1.5 -3.59375 2.359375 -3.59375 C 2.5 -3.59375 2.9375 -3.59375 3.234375 -3.046875 C 3.40625 -2.703125 3.40625 -2.265625 3.40625 -1.828125 C 3.40625 -1.40625 3.40625 -0.953125 3.234375 -0.625 C 2.953125 -0.109375 2.5625 -0.046875 2.3125 -0.046875 Z M 2.3125 -0.046875 "/>
</g>
<g id="glyph-0-7">
<path d="M 4.390625 -5.46875 C 4.46875 -5.5625 4.46875 -5.59375 4.46875 -5.78125 L 2.25 -5.78125 C 1.109375 -5.78125 1.078125 -5.890625 1.0625 -6.0625 L 0.8125 -6.0625 L 0.515625 -4.1875 L 0.765625 -4.1875 C 0.796875 -4.390625 0.875 -4.890625 0.984375 -5 C 1.046875 -5.0625 1.765625 -5.0625 1.890625 -5.0625 L 3.765625 -5.0625 L 2.90625 -3.890625 C 1.734375 -2.28125 1.625 -0.8125 1.625 -0.3125 C 1.625 -0.203125 1.625 0.203125 2.046875 0.203125 C 2.46875 0.203125 2.46875 -0.203125 2.46875 -0.3125 L 2.46875 -0.75 C 2.46875 -2.078125 2.65625 -3.109375 3.140625 -3.765625 Z M 4.390625 -5.46875 "/>
</g>
<g id="glyph-0-8">
<path d="M 1.546875 -4.078125 C 1.28125 -4.25 1.0625 -4.484375 1.0625 -4.8125 C 1.0625 -5.40625 1.6875 -5.75 2.28125 -5.75 C 2.984375 -5.75 3.53125 -5.265625 3.53125 -4.640625 C 3.53125 -4.015625 3 -3.59375 2.640625 -3.390625 Z M 2.859375 -3.25 C 3.3125 -3.46875 3.96875 -3.90625 3.96875 -4.640625 C 3.96875 -5.484375 3.125 -5.96875 2.3125 -5.96875 C 1.375 -5.96875 0.640625 -5.296875 0.640625 -4.46875 C 0.640625 -4.140625 0.765625 -3.8125 0.984375 -3.546875 C 1.125 -3.375 1.1875 -3.34375 1.703125 -3.015625 C 0.921875 -2.640625 0.390625 -2.09375 0.390625 -1.359375 C 0.390625 -0.40625 1.328125 0.203125 2.296875 0.203125 C 3.34375 0.203125 4.21875 -0.53125 4.21875 -1.5 C 4.21875 -2.375 3.546875 -2.8125 3.328125 -2.953125 C 3.234375 -3.015625 2.96875 -3.1875 2.859375 -3.25 Z M 1.953125 -2.859375 L 3.078125 -2.15625 C 3.28125 -2.03125 3.734375 -1.734375 3.734375 -1.1875 C 3.734375 -0.484375 3.015625 -0.046875 2.3125 -0.046875 C 1.53125 -0.046875 0.875 -0.609375 0.875 -1.359375 C 0.875 -2 1.3125 -2.53125 1.953125 -2.859375 Z M 1.953125 -2.859375 "/>
</g>
<g id="glyph-0-9">
<path d="M 3.40625 -2.828125 L 3.40625 -2.625 C 3.40625 -0.4375 2.40625 -0.046875 1.890625 -0.046875 C 1.6875 -0.046875 1.234375 -0.09375 1 -0.390625 L 1.03125 -0.390625 C 1.109375 -0.375 1.453125 -0.4375 1.453125 -0.796875 C 1.453125 -1.03125 1.296875 -1.203125 1.046875 -1.203125 C 0.796875 -1.203125 0.625 -1.046875 0.625 -0.78125 C 0.625 -0.1875 1.09375 0.203125 1.90625 0.203125 C 3.0625 0.203125 4.21875 -0.984375 4.21875 -2.953125 C 4.21875 -5.375 3.140625 -5.96875 2.328125 -5.96875 C 1.296875 -5.96875 0.390625 -5.140625 0.390625 -3.96875 C 0.390625 -2.828125 1.203125 -1.96875 2.21875 -1.96875 C 2.875 -1.96875 3.234375 -2.4375 3.40625 -2.828125 Z M 2.25 -2.1875 C 2.09375 -2.1875 1.65625 -2.1875 1.375 -2.75 C 1.203125 -3.078125 1.203125 -3.53125 1.203125 -3.953125 C 1.203125 -4.390625 1.203125 -4.828125 1.390625 -5.171875 C 1.65625 -5.625 2.015625 -5.75 2.328125 -5.75 C 2.9375 -5.75 3.1875 -5.125 3.21875 -5.046875 C 3.34375 -4.703125 3.375 -4.15625 3.375 -3.78125 C 3.375 -3.125 3.078125 -2.1875 2.25 -2.1875 Z M 2.25 -2.1875 "/>
</g>
<g id="glyph-1-0">
<path d="M 1.765625 -0.484375 C 1.765625 -0.75 1.546875 -0.96875 1.28125 -0.96875 C 1 -0.96875 0.796875 -0.75 0.796875 -0.484375 C 0.796875 -0.21875 1 0 1.28125 0 C 1.546875 0 1.765625 -0.21875 1.765625 -0.484375 Z M 1.765625 -0.484375 "/>
</g>
<g id="glyph-1-1">
<path d="M 0.40625 1.125 C 0.34375 1.375 0.328125 1.46875 -0.046875 1.46875 C -0.15625 1.46875 -0.265625 1.46875 -0.265625 1.625 C -0.265625 1.65625 -0.234375 1.734375 -0.140625 1.734375 L 0.234375 1.71875 C 0.296875 1.71875 0.5 1.71875 0.625 1.71875 C 0.78125 1.71875 0.9375 1.71875 1.078125 1.71875 C 1.234375 1.71875 1.375 1.734375 1.515625 1.734375 C 1.5625 1.734375 1.6875 1.734375 1.6875 1.578125 C 1.6875 1.46875 1.59375 1.46875 1.4375 1.46875 C 1.015625 1.46875 1.015625 1.40625 1.015625 1.3125 C 1.015625 1.265625 1.078125 1.015625 1.125 0.875 L 1.453125 -0.453125 C 1.546875 -0.265625 1.796875 0.09375 2.3125 0.09375 C 3.359375 0.09375 4.5 -1.171875 4.5 -2.515625 C 4.5 -3.421875 3.9375 -3.96875 3.265625 -3.96875 C 3.078125 -3.96875 2.625 -3.921875 2.078125 -3.3125 C 1.953125 -3.8125 1.53125 -3.96875 1.234375 -3.96875 C 0.859375 -3.96875 0.65625 -3.6875 0.53125 -3.4375 C 0.390625 -3.125 0.265625 -2.625 0.265625 -2.578125 C 0.265625 -2.5 0.328125 -2.46875 0.390625 -2.46875 C 0.484375 -2.46875 0.5 -2.515625 0.546875 -2.703125 C 0.71875 -3.40625 0.90625 -3.734375 1.203125 -3.734375 C 1.484375 -3.734375 1.484375 -3.453125 1.484375 -3.3125 C 1.484375 -3.25 1.46875 -3.109375 1.453125 -3.046875 Z M 2.03125 -2.765625 C 2.078125 -2.9375 2.078125 -2.953125 2.203125 -3.09375 C 2.4375 -3.40625 2.84375 -3.734375 3.25 -3.734375 C 3.671875 -3.734375 3.84375 -3.3125 3.84375 -2.890625 C 3.84375 -2.5 3.59375 -1.375 3.3125 -0.90625 C 3 -0.390625 2.625 -0.125 2.296875 -0.125 C 1.71875 -0.125 1.5625 -0.828125 1.5625 -0.890625 C 1.5625 -0.953125 1.59375 -1 1.59375 -1.046875 Z M 2.03125 -2.765625 "/>
</g>
<g id="glyph-2-0">
<path d="M -6.078125 -6.9375 C -6.1875 -6.96875 -6.203125 -6.96875 -6.21875 -6.96875 C -6.234375 -6.96875 -6.328125 -6.953125 -6.328125 -6.859375 C -6.328125 -6.8125 -6.296875 -6.78125 -6.21875 -6.71875 L -5.625 -6.171875 C -5.578125 -6.140625 -5.546875 -6.09375 -5.546875 -6.09375 C -5.546875 -6.078125 -5.546875 -6.078125 -5.609375 -6.015625 C -5.796875 -5.890625 -6.328125 -5.484375 -6.328125 -4.546875 C -6.328125 -2.5 -4.328125 -0.453125 -2.28125 -0.453125 C -0.828125 -0.453125 0.203125 -1.53125 0.203125 -2.96875 C 0.203125 -3.90625 -0.28125 -4.640625 -0.59375 -4.984375 C -1.328125 -5.796875 -2.109375 -5.953125 -2.15625 -5.953125 C -2.1875 -5.953125 -2.25 -5.9375 -2.25 -5.828125 C -2.25 -5.734375 -2.203125 -5.71875 -2.15625 -5.703125 C -0.71875 -5.265625 -0.078125 -3.984375 -0.078125 -3.078125 C -0.078125 -2.21875 -0.609375 -1.296875 -1.96875 -1.296875 C -2.375 -1.296875 -3.78125 -1.421875 -4.890625 -2.328125 C -5.53125 -2.875 -6.046875 -3.75 -6.046875 -4.609375 C -6.046875 -5.609375 -5.28125 -6.140625 -4.296875 -6.140625 C -3.984375 -6.140625 -3.921875 -6.109375 -3.859375 -6.109375 C -3.765625 -6.109375 -3.765625 -6.21875 -3.765625 -6.25 C -3.765625 -6.359375 -3.78125 -6.359375 -3.953125 -6.40625 Z M -6.078125 -6.9375 "/>
</g>
</g>
<clipPath id="clip-0">
<path clip-rule="nonzero" d="M 35.566406 10.941406 L 217.511719 10.941406 L 217.511719 107.84375 L 35.566406 107.84375 Z M 35.566406 10.941406 "/>
</clipPath>
</defs>
<path fill="none" stroke-width="0.19925" stroke-linecap="butt" stroke-linejoin="miter" stroke="rgb(50%, 50%, 50%)" stroke-opacity="1" stroke-miterlimit="10" d="M -0.00159375 0.00125 L -0.00159375 4.255156 M 18.193719 0.00125 L 18.193719 4.255156 M 36.389031 0.00125 L 36.389031 4.255156 M 54.584344 0.00125 L 54.584344 4.255156 M 72.77575 0.00125 L 72.77575 4.255156 M 90.971062 0.00125 L 90.971062 4.255156 M 109.166375 0.00125 L 109.166375 4.255156 M 127.357781 0.00125 L 127.357781 4.255156 M 145.553094 0.00125 L 145.553094 4.255156 M 163.748406 0.00125 L 163.748406 4.255156 M 181.943719 0.00125 L 181.943719 4.255156 M -0.00159375 96.903594 L -0.00159375 92.653594 M 18.193719 96.903594 L 18.193719 92.653594 M 36.389031 96.903594 L 36.389031 92.653594 M 54.584344 96.903594 L 54.584344 92.653594 M 72.77575 96.903594 L 72.77575 92.653594 M 90.971062 96.903594 L 90.971062 92.653594 M 109.166375 96.903594 L 109.166375 92.653594 M 127.357781 96.903594 L 127.357781 92.653594 M 145.553094 96.903594 L 145.553094 92.653594 M 163.748406 96.903594 L 163.748406 92.653594 M 181.943719 96.903594 L 181.943719 92.653594 " transform="matrix(1, 0, 0, -1, 35.568, 107.845)"/>
<path fill="none" stroke-width="0.19925" stroke-linecap="butt" stroke-linejoin="miter" stroke="rgb(50%, 50%, 50%)" stroke-opacity="1" stroke-miterlimit="10" d="M -0.00159375 0.00125 L 4.252312 0.00125 M -0.00159375 19.384063 L 4.252312 19.384063 M -0.00159375 38.762969 L 4.252312 38.762969 M -0.00159375 58.141875 L 4.252312 58.141875 M -0.00159375 77.524688 L 4.252312 77.524688 M -0.00159375 96.903594 L 4.252312 96.903594 M 181.943719 0.00125 L 177.689812 0.00125 M 181.943719 19.384063 L 177.689812 19.384063 M 181.943719 38.762969 L 177.689812 38.762969 M 181.943719 58.141875 L 177.689812 58.141875 M 181.943719 77.524688 L 177.689812 77.524688 M 181.943719 96.903594 L 177.689812 96.903594 " transform="matrix(1, 0, 0, -1, 35.568, 107.845)"/>
<path fill="none" stroke-width="0.3985" stroke-linecap="butt" stroke-linejoin="miter" stroke="rgb(0%, 0%, 0%)" stroke-opacity="1" stroke-miterlimit="10" d="M -0.00159375 0.00125 L -0.00159375 96.903594 L 181.943719 96.903594 L 181.943719 0.00125 Z M -0.00159375 0.00125 " transform="matrix(1, 0, 0, -1, 35.568, 107.845)"/>
<g fill="rgb(0%, 0%, 0%)" fill-opacity="1">
<use xlink:href="#glyph-0-0" x="33.264" y="116.892"/>
</g>
<g fill="rgb(0%, 0%, 0%)" fill-opacity="1">
<use xlink:href="#glyph-0-0" x="47.874" y="116.892"/>
</g>
<g fill="rgb(0%, 0%, 0%)" fill-opacity="1">
<use xlink:href="#glyph-1-0" x="52.482" y="116.892"/>
</g>
<g fill="rgb(0%, 0%, 0%)" fill-opacity="1">
<use xlink:href="#glyph-0-1" x="55.042" y="116.892"/>
</g>
<g fill="rgb(0%, 0%, 0%)" fill-opacity="1">
<use xlink:href="#glyph-0-0" x="66.068" y="116.892"/>
</g>
<g fill="rgb(0%, 0%, 0%)" fill-opacity="1">
<use xlink:href="#glyph-1-0" x="70.676" y="116.892"/>
</g>
<g fill="rgb(0%, 0%, 0%)" fill-opacity="1">
<use xlink:href="#glyph-0-2" x="73.236" y="116.892"/>
</g>
<g fill="rgb(0%, 0%, 0%)" fill-opacity="1">
<use xlink:href="#glyph-0-0" x="84.262" y="116.892"/>
</g>
<g fill="rgb(0%, 0%, 0%)" fill-opacity="1">
<use xlink:href="#glyph-1-0" x="88.87" y="116.892"/>
</g>
<g fill="rgb(0%, 0%, 0%)" fill-opacity="1">
<use xlink:href="#glyph-0-3" x="91.43" y="116.892"/>
</g>
<g fill="rgb(0%, 0%, 0%)" fill-opacity="1">
<use xlink:href="#glyph-0-0" x="102.456" y="116.892"/>
</g>
<g fill="rgb(0%, 0%, 0%)" fill-opacity="1">
<use xlink:href="#glyph-1-0" x="107.064" y="116.892"/>
</g>
<g fill="rgb(0%, 0%, 0%)" fill-opacity="1">
<use xlink:href="#glyph-0-4" x="109.624" y="116.892"/>
</g>
<g fill="rgb(0%, 0%, 0%)" fill-opacity="1">
<use xlink:href="#glyph-0-0" x="120.65" y="116.892"/>
</g>
<g fill="rgb(0%, 0%, 0%)" fill-opacity="1">
<use xlink:href="#glyph-1-0" x="125.258" y="116.892"/>
</g>
<g fill="rgb(0%, 0%, 0%)" fill-opacity="1">
<use xlink:href="#glyph-0-5" x="127.818" y="116.892"/>
</g>
<g fill="rgb(0%, 0%, 0%)" fill-opacity="1">
<use xlink:href="#glyph-0-0" x="138.844" y="116.892"/>
</g>
<g fill="rgb(0%, 0%, 0%)" fill-opacity="1">
<use xlink:href="#glyph-1-0" x="143.452" y="116.892"/>
</g>
<g fill="rgb(0%, 0%, 0%)" fill-opacity="1">
<use xlink:href="#glyph-0-6" x="146.011" y="116.892"/>
</g>
<g fill="rgb(0%, 0%, 0%)" fill-opacity="1">
<use xlink:href="#glyph-0-0" x="157.038" y="116.892"/>
</g>
<g fill="rgb(0%, 0%, 0%)" fill-opacity="1">
<use xlink:href="#glyph-1-0" x="161.646" y="116.892"/>
</g>
<g fill="rgb(0%, 0%, 0%)" fill-opacity="1">
<use xlink:href="#glyph-0-7" x="164.205" y="116.892"/>
</g>
<g fill="rgb(0%, 0%, 0%)" fill-opacity="1">
<use xlink:href="#glyph-0-0" x="175.232" y="116.892"/>
</g>
<g fill="rgb(0%, 0%, 0%)" fill-opacity="1">
<use xlink:href="#glyph-1-0" x="179.84" y="116.892"/>
</g>
<g fill="rgb(0%, 0%, 0%)" fill-opacity="1">
<use xlink:href="#glyph-0-8" x="182.399" y="116.892"/>
</g>
<g fill="rgb(0%, 0%, 0%)" fill-opacity="1">
<use xlink:href="#glyph-0-0" x="193.426" y="116.892"/>
</g>
<g fill="rgb(0%, 0%, 0%)" fill-opacity="1">
<use xlink:href="#glyph-1-0" x="198.034" y="116.892"/>
</g>
<g fill="rgb(0%, 0%, 0%)" fill-opacity="1">
<use xlink:href="#glyph-0-9" x="200.593" y="116.892"/>
</g>
<g fill="rgb(0%, 0%, 0%)" fill-opacity="1">
<use xlink:href="#glyph-0-1" x="215.204" y="116.892"/>
</g>
<g fill="rgb(0%, 0%, 0%)" fill-opacity="1">
<use xlink:href="#glyph-0-0" x="27.69" y="110.732"/>
</g>
<g fill="rgb(0%, 0%, 0%)" fill-opacity="1">
<use xlink:href="#glyph-0-0" x="20.522" y="91.352"/>
</g>
<g fill="rgb(0%, 0%, 0%)" fill-opacity="1">
<use xlink:href="#glyph-1-0" x="25.13" y="91.352"/>
</g>
<g fill="rgb(0%, 0%, 0%)" fill-opacity="1">
<use xlink:href="#glyph-0-2" x="27.69" y="91.352"/>
</g>
<g fill="rgb(0%, 0%, 0%)" fill-opacity="1">
<use xlink:href="#glyph-0-0" x="20.522" y="71.972"/>
</g>
<g fill="rgb(0%, 0%, 0%)" fill-opacity="1">
<use xlink:href="#glyph-1-0" x="25.13" y="71.972"/>
</g>
<g fill="rgb(0%, 0%, 0%)" fill-opacity="1">
<use xlink:href="#glyph-0-4" x="27.69" y="71.972"/>
</g>
<g fill="rgb(0%, 0%, 0%)" fill-opacity="1">
<use xlink:href="#glyph-0-0" x="20.522" y="52.592"/>
</g>
<g fill="rgb(0%, 0%, 0%)" fill-opacity="1">
<use xlink:href="#glyph-1-0" x="25.13" y="52.592"/>
</g>
<g fill="rgb(0%, 0%, 0%)" fill-opacity="1">
<use xlink:href="#glyph-0-6" x="27.69" y="52.592"/>
</g>
<g fill="rgb(0%, 0%, 0%)" fill-opacity="1">
<use xlink:href="#glyph-0-0" x="20.522" y="33.212"/>
</g>
<g fill="rgb(0%, 0%, 0%)" fill-opacity="1">
<use xlink:href="#glyph-1-0" x="25.13" y="33.212"/>
</g>
<g fill="rgb(0%, 0%, 0%)" fill-opacity="1">
<use xlink:href="#glyph-0-8" x="27.69" y="33.212"/>
</g>
<g fill="rgb(0%, 0%, 0%)" fill-opacity="1">
<use xlink:href="#glyph-0-1" x="27.69" y="13.832"/>
</g>
<g clip-path="url(#clip-0)">
<path fill="none" stroke-width="0.99628" stroke-linecap="butt" stroke-linejoin="miter" stroke="rgb(0%, 0%, 0%)" stroke-opacity="1" stroke-miterlimit="10" d="M -0.00159375 96.903594 L 1.818719 89.071563 L 3.639031 83.192656 L 5.459344 78.06375 L 7.27575 73.423125 L 9.096062 69.149688 L 10.916375 65.173125 L 12.736687 61.43875 L 14.557 57.930938 L 16.373406 54.602813 L 18.193719 51.454375 L 20.014031 48.454375 L 21.834344 45.602813 L 23.65075 42.884063 L 25.471062 40.286406 L 27.291375 37.805938 L 29.111687 35.430938 L 30.932 33.165313 L 32.748406 31.00125 L 34.568719 28.927031 L 36.389031 26.946563 L 38.209344 25.0325 L 40.02575 23.235625 L 41.846062 21.489531 L 43.666375 19.852813 L 45.486687 18.270781 L 47.303094 16.786406 L 49.123406 15.345 L 50.943719 13.997344 L 52.764031 12.712188 L 54.584344 11.493438 L 56.40075 10.345 L 58.221062 9.255156 L 60.041375 8.235625 L 61.861687 7.274688 L 63.678094 6.380156 L 65.498406 5.544219 L 67.318719 4.774688 L 69.139031 4.055938 L 70.955437 3.403594 L 72.77575 2.81375 L 74.596062 2.274688 L 76.416375 1.794219 L 78.236687 1.368438 L 80.053094 1.005156 L 81.873406 0.700469 L 83.693719 0.446563 L 85.514031 0.25125 L 87.330437 0.110625 L 89.15075 0.0246875 L 90.971062 0.00125 L 92.791375 0.0246875 L 94.611687 0.110625 L 96.428094 0.25125 L 98.248406 0.446563 L 100.068719 0.700469 L 101.889031 1.005156 L 103.705437 1.368438 L 105.52575 1.794219 L 107.346062 2.274688 L 109.166375 2.81375 L 110.982781 3.403594 L 112.803094 4.055938 L 114.623406 4.774688 L 116.443719 5.544219 L 118.264031 6.380156 L 120.080437 7.274688 L 121.90075 8.235625 L 123.721062 9.255156 L 125.541375 10.345 L 127.357781 11.493438 L 129.178094 12.712188 L 130.998406 13.997344 L 132.818719 15.345 L 134.635125 16.786406 L 136.455437 18.270781 L 138.27575 19.852813 L 140.096062 21.489531 L 141.916375 23.235625 L 143.732781 25.0325 L 145.553094 26.946563 L 147.373406 28.927031 L 149.193719 31.00125 L 151.010125 33.165313 L 152.830437 35.430938 L 154.65075 37.805938 L 156.471062 40.286406 L 158.287469 42.884063 L 160.107781 45.602813 L 161.928094 48.454375 L 163.748406 51.454375 L 165.568719 54.602813 L 167.385125 57.930938 L 169.205437 61.43875 L 171.02575 65.173125 L 172.846062 69.149688 L 174.662469 73.423125 L 176.482781 78.06375 L 178.303094 83.192656 L 180.123406 89.071563 L 181.943719 96.903594 " transform="matrix(1, 0, 0, -1, 35.568, 107.845)"/>
</g>
<g fill="rgb(0%, 0%, 0%)" fill-opacity="1">
<use xlink:href="#glyph-1-1" x="124.225" y="127.095"/>
</g>
<g fill="rgb(0%, 0%, 0%)" fill-opacity="1">
<use xlink:href="#glyph-2-0" x="14.18" y="63.001"/>
</g>
</svg>
