<?xml version="1.0" encoding="UTF-8"?>
<svg xmlns="http://www.w3.org/2000/svg" xmlns:xlink="http://www.w3.org/1999/xlink" width="198.738pt" height="96.791pt" viewBox="0 0 198.738 96.791">
<defs>
<g>
<g id="glyph-0-0">
<path d="M 2.5 -5.078125 C 2.5 -5.296875 2.484375 -5.296875 2.265625 -5.296875 C 1.9375 -4.984375 1.515625 -4.796875 0.765625 -4.796875 L 0.765625 -4.53125 C 0.984375 -4.53125 1.40625 -4.53125 1.875 -4.734375 L 1.875 -0.65625 C 1.875 -0.359375 1.84375 -0.265625 1.09375 -0.265625 L 0.8125 -0.265625 L 0.8125 0 C 1.140625 -0.03125 1.828125 -0.03125 2.1875 -0.03125 C 2.546875 -0.03125 3.234375 -0.03125 3.5625 0 L 3.5625 -0.265625 L 3.28125 -0.265625 C 2.53125 -0.265625 2.5 -0.359375 2.5 -0.65625 Z M 2.5 -5.078125 "/>
</g>
<g id="glyph-0-1">
<path d="M 3.890625 -2.546875 C 3.890625 -3.390625 3.8125 -3.90625 3.546875 -4.421875 C 3.203125 -5.125 2.546875 -5.296875 2.109375 -5.296875 C 1.109375 -5.296875 0.734375 -4.546875 0.625 -4.328125 C 0.34375 -3.75 0.328125 -2.953125 0.328125 -2.546875 C 0.328125 -2.015625 0.34375 -1.21875 0.734375 -0.578125 C 1.09375 0.015625 1.6875 0.171875 2.109375 0.171875 C 2.5 0.171875 3.171875 0.046875 3.578125 -0.734375 C 3.875 -1.3125 3.890625 -2.03125 3.890625 -2.546875 Z M 2.109375 -0.0625 C 1.84375 -0.0625 1.296875 -0.1875 1.125 -1.015625 C 1.03125 -1.46875 1.03125 -2.21875 1.03125 -2.640625 C 1.03125 -3.1875 1.03125 -3.75 1.125 -4.1875 C 1.296875 -5 1.90625 -5.078125 2.109375 -5.078125 C 2.375 -5.078125 2.9375 -4.9375 3.09375 -4.21875 C 3.1875 -3.78125 3.1875 -3.171875 3.1875 -2.640625 C 3.1875 -2.171875 3.1875 -1.453125 3.09375 -1 C 2.921875 -0.171875 2.375 -0.0625 2.109375 -0.0625 Z M 2.109375 -0.0625 "/>
</g>
<g id="glyph-1-0">
<path d="M 2.71875 -5.734375 C 2.71875 -5.953125 2.71875 -5.96875 2.5 -5.96875 C 1.9375 -5.40625 1.109375 -5.40625 0.828125 -5.40625 L 0.828125 -5.125 C 1 -5.125 1.546875 -5.125 2.03125 -5.359375 L 2.03125 -0.71875 C 2.03125 -0.390625 2.015625 -0.28125 1.171875 -0.28125 L 0.890625 -0.28125 L 0.890625 0 C 1.203125 -0.03125 2.015625 -0.03125 2.375 -0.03125 C 2.75 -0.03125 3.546875 -0.03125 3.875 0 L 3.875 -0.28125 L 3.59375 -0.28125 C 2.75 -0.28125 2.71875 -0.390625 2.71875 -0.71875 Z M 2.71875 -5.734375 "/>
</g>
<g id="glyph-1-1">
<path d="M 4.25 -2.875 C 4.25 -3.46875 4.21875 -4.25 3.90625 -4.921875 C 3.5 -5.765625 2.828125 -5.96875 2.3125 -5.96875 C 1.765625 -5.96875 1.078125 -5.765625 0.6875 -4.890625 C 0.40625 -4.28125 0.359375 -3.546875 0.359375 -2.875 C 0.359375 -2.28125 0.375 -1.421875 0.765625 -0.703125 C 1.1875 0.046875 1.890625 0.203125 2.296875 0.203125 C 2.875 0.203125 3.546875 -0.046875 3.921875 -0.875 C 4.1875 -1.484375 4.25 -2.15625 4.25 -2.875 Z M 2.3125 -0.03125 C 2.03125 -0.03125 1.390625 -0.15625 1.21875 -1.171875 C 1.125 -1.6875 1.125 -2.46875 1.125 -2.984375 C 1.125 -3.59375 1.125 -4.296875 1.234375 -4.796875 C 1.421875 -5.59375 1.984375 -5.75 2.296875 -5.75 C 2.640625 -5.75 3.203125 -5.5625 3.375 -4.734375 C 3.46875 -4.25 3.46875 -3.546875 3.46875 -2.984375 C 3.46875 -2.421875 3.46875 -1.671875 3.375 -1.140625 C 3.1875 -0.109375 2.53125 -0.03125 2.3125 -0.03125 Z M 2.3125 -0.03125 "/>
</g>
<g id="glyph-1-2">
<path d="M 1.921875 -1.84375 C 1.921875 -1.78125 1.921875 -1.6875 2.046875 -1.6875 C 2.171875 -1.6875 2.171875 -1.765625 2.171875 -1.921875 L 2.171875 -2.1875 C 2.171875 -3.046875 2.640625 -3.703125 3.3125 -4.171875 C 3.59375 -4.375 3.828125 -4.640625 3.828125 -5.109375 C 3.828125 -5.65625 3.4375 -6.328125 2.078125 -6.328125 C 1.078125 -6.328125 0.515625 -5.71875 0.515625 -5.125 C 0.515625 -4.8125 0.71875 -4.6875 0.9375 -4.6875 C 1.171875 -4.6875 1.34375 -4.859375 1.34375 -5.109375 C 1.34375 -5.25 1.28125 -5.53125 0.875 -5.53125 C 1.1875 -6.03125 1.796875 -6.09375 2.0625 -6.09375 C 3.046875 -6.09375 3.0625 -5.5 3.0625 -5.140625 C 3.0625 -4.640625 2.890625 -4.46875 2.75 -4.3125 C 1.921875 -3.46875 1.921875 -2.453125 1.921875 -2.09375 Z M 2.53125 -0.484375 C 2.53125 -0.75 2.3125 -0.96875 2.046875 -0.96875 C 1.78125 -0.96875 1.5625 -0.75 1.5625 -0.484375 C 1.5625 -0.21875 1.78125 0 2.046875 0 C 2.3125 0 2.53125 -0.21875 2.53125 -0.484375 Z M 2.53125 -0.484375 "/>
</g>
</g>
</defs>
<path fill-rule="nonzero" fill="rgb(50%, 50%, 50%)" fill-opacity="1" stroke-width="0.3985" stroke-linecap="butt" stroke-linejoin="miter" stroke="rgb(50%, 50%, 50%)" stroke-opacity="1" stroke-miterlimit="10" d="M 2.323125 2.325094 L -2.325312 2.325094 L -2.325312 -2.323344 L 2.323125 -2.323344 Z M 2.323125 2.325094 " transform="matrix(1, 0, 0, -1, 7.505, 40.954)"/>
<path fill-rule="nonzero" fill="rgb(50%, 50%, 50%)" fill-opacity="1" stroke-width="0.3985" stroke-linecap="butt" stroke-linejoin="miter" stroke="rgb(50%, 50%, 50%)" stroke-opacity="1" stroke-miterlimit="10" d="M 44.162969 -29.76475 C 44.162969 -28.854594 43.428594 -28.120219 42.518437 -28.120219 C 41.612187 -28.120219 40.877812 -28.854594 40.877812 -29.76475 C 40.877812 -30.671 41.612187 -31.409281 42.518437 -31.409281 C 43.428594 -31.409281 44.162969 -30.671 44.162969 -29.76475 Z M 44.162969 -29.76475 " transform="matrix(1, 0, 0, -1, 7.505, 40.954)"/>
<path fill="none" stroke-width="0.3985" stroke-linecap="butt" stroke-linejoin="miter" stroke="rgb(0%, 0%, 0%)" stroke-opacity="1" stroke-miterlimit="10" d="M 2.46375 -1.725687 L 41.116094 -28.780375 " transform="matrix(1, 0, 0, -1, 7.505, 40.954)"/>
<path fill-rule="nonzero" fill="rgb(50%, 50%, 50%)" fill-opacity="1" stroke-width="0.3985" stroke-linecap="butt" stroke-linejoin="miter" stroke="rgb(50%, 50%, 50%)" stroke-opacity="1" stroke-miterlimit="10" d="M 88.327031 -44.647562 C 88.327031 -42.831156 86.854375 -41.3585 85.041875 -41.3585 C 83.225469 -41.3585 81.752813 -42.831156 81.752813 -44.647562 C 81.752813 -46.460062 83.225469 -47.932719 85.041875 -47.932719 C 86.854375 -47.932719 88.327031 -46.460062 88.327031 -44.647562 Z M 88.327031 -44.647562 " transform="matrix(1, 0, 0, -1, 7.505, 40.954)"/>
<path fill="none" stroke-width="0.3985" stroke-linecap="butt" stroke-linejoin="miter" stroke="rgb(0%, 0%, 0%)" stroke-opacity="1" stroke-miterlimit="10" d="M 44.135625 -30.331156 L 81.8075 -43.51475 " transform="matrix(1, 0, 0, -1, 7.505, 40.954)"/>
<g fill="rgb(0%, 0%, 0%)" fill-opacity="1">
<use xlink:href="#glyph-0-0" x="68.359" y="86.532"/>
</g>
<path fill-rule="nonzero" fill="rgb(50%, 50%, 50%)" fill-opacity="1" stroke-width="0.3985" stroke-linecap="butt" stroke-linejoin="miter" stroke="rgb(50%, 50%, 50%)" stroke-opacity="1" stroke-miterlimit="10" d="M 86.6825 -14.881937 C 86.6825 -13.975687 85.948125 -13.237406 85.041875 -13.237406 C 84.131719 -13.237406 83.397344 -13.975687 83.397344 -14.881937 C 83.397344 -15.788187 84.131719 -16.526469 85.041875 -16.526469 C 85.948125 -16.526469 86.6825 -15.788187 86.6825 -14.881937 Z M 86.6825 -14.881937 " transform="matrix(1, 0, 0, -1, 7.505, 40.954)"/>
<path fill="none" stroke-width="0.3985" stroke-linecap="butt" stroke-linejoin="miter" stroke="rgb(0%, 0%, 0%)" stroke-opacity="1" stroke-miterlimit="10" d="M 44.135625 -29.198344 L 83.424688 -15.448344 " transform="matrix(1, 0, 0, -1, 7.505, 40.954)"/>
<path fill-rule="nonzero" fill="rgb(50%, 50%, 50%)" fill-opacity="1" stroke-width="0.3985" stroke-linecap="butt" stroke-linejoin="miter" stroke="rgb(50%, 50%, 50%)" stroke-opacity="1" stroke-miterlimit="10" d="M 130.846563 -24.803812 C 130.846563 -22.987406 129.377813 -21.51475 127.561406 -21.51475 C 125.745 -21.51475 124.272344 -22.987406 124.272344 -24.803812 C 124.272344 -26.620219 125.745 -28.088969 127.561406 -28.088969 C 129.377813 -28.088969 130.846563 -26.620219 130.846563 -24.803812 Z M 130.846563 -24.803812 " transform="matrix(1, 0, 0, -1, 7.505, 40.954)"/>
<path fill="none" stroke-width="0.3985" stroke-linecap="butt" stroke-linejoin="miter" stroke="rgb(0%, 0%, 0%)" stroke-opacity="1" stroke-miterlimit="10" d="M 86.709844 -15.272562 L 124.225469 -24.026469 " transform="matrix(1, 0, 0, -1, 7.505, 40.954)"/>
<path fill-rule="nonzero" fill="rgb(50%, 50%, 50%)" fill-opacity="1" stroke-width="0.3985" stroke-linecap="butt" stroke-linejoin="miter" stroke="rgb(50%, 50%, 50%)" stroke-opacity="1" stroke-miterlimit="10" d="M 173.37 -24.803812 C 173.37 -22.987406 171.897344 -21.51475 170.080938 -21.51475 C 168.264531 -21.51475 166.791875 -22.987406 166.791875 -24.803812 C 166.791875 -26.620219 168.264531 -28.088969 170.080938 -28.088969 C 171.897344 -28.088969 173.37 -26.620219 173.37 -24.803812 Z M 173.37 -24.803812 " transform="matrix(1, 0, 0, -1, 7.505, 40.954)"/>
<g fill="rgb(0%, 0%, 0%)" fill-opacity="1">
<use xlink:href="#glyph-0-0" x="110.853" y="69.258"/>
</g>
<path fill-rule="nonzero" fill="rgb(50%, 50%, 50%)" fill-opacity="1" stroke-width="0.3985" stroke-linecap="butt" stroke-linejoin="miter" stroke="rgb(50%, 50%, 50%)" stroke-opacity="1" stroke-miterlimit="10" d="M 130.846563 -4.960062 C 130.846563 -3.143656 129.377813 -1.674906 127.561406 -1.674906 C 125.745 -1.674906 124.272344 -3.143656 124.272344 -4.960062 C 124.272344 -6.776469 125.745 -8.249125 127.561406 -8.249125 C 129.377813 -8.249125 130.846563 -6.776469 130.846563 -4.960062 Z M 130.846563 -4.960062 " transform="matrix(1, 0, 0, -1, 7.505, 40.954)"/>
<path fill="none" stroke-width="0.3985" stroke-linecap="butt" stroke-linejoin="miter" stroke="rgb(0%, 0%, 0%)" stroke-opacity="1" stroke-miterlimit="10" d="M 86.709844 -14.491312 L 124.225469 -5.737406 " transform="matrix(1, 0, 0, -1, 7.505, 40.954)"/>
<g fill="rgb(0%, 0%, 0%)" fill-opacity="1">
<use xlink:href="#glyph-0-1" x="110.853" y="47.55"/>
</g>
<g fill="rgb(0%, 0%, 0%)" fill-opacity="1">
<use xlink:href="#glyph-0-1" x="69.167" y="59.757"/>
</g>
<g fill="rgb(0%, 0%, 0%)" fill-opacity="1">
<use xlink:href="#glyph-0-0" x="27.178" y="64.863"/>
</g>
<path fill-rule="nonzero" fill="rgb(50%, 50%, 50%)" fill-opacity="1" stroke-width="0.3985" stroke-linecap="butt" stroke-linejoin="miter" stroke="rgb(50%, 50%, 50%)" stroke-opacity="1" stroke-miterlimit="10" d="M 45.8075 29.762594 C 45.8075 31.579 44.334844 33.051656 42.518437 33.051656 C 40.705937 33.051656 39.233281 31.579 39.233281 29.762594 C 39.233281 27.950094 40.705937 26.477438 42.518437 26.477438 C 44.334844 26.477438 45.8075 27.950094 45.8075 29.762594 Z M 45.8075 29.762594 " transform="matrix(1, 0, 0, -1, 7.505, 40.954)"/>
<path fill="none" stroke-width="0.3985" stroke-linecap="butt" stroke-linejoin="miter" stroke="rgb(0%, 0%, 0%)" stroke-opacity="1" stroke-miterlimit="10" d="M 2.46375 1.723531 L 39.71375 27.79775 " transform="matrix(1, 0, 0, -1, 7.505, 40.954)"/>
<g fill="rgb(0%, 0%, 0%)" fill-opacity="1">
<use xlink:href="#glyph-0-1" x="26.476" y="22.673"/>
</g>
<g fill="rgb(0%, 0%, 0%)" fill-opacity="1">
<use xlink:href="#glyph-1-0" x="101.045" y="88.489"/>
<use xlink:href="#glyph-1-0" x="105.652833" y="88.489"/>
</g>
<g fill="rgb(0%, 0%, 0%)" fill-opacity="1">
<use xlink:href="#glyph-1-0" x="143.565" y="68.646"/>
<use xlink:href="#glyph-1-1" x="148.172833" y="68.646"/>
<use xlink:href="#glyph-1-0" x="152.780666" y="68.646"/>
</g>
<g fill="rgb(0%, 0%, 0%)" fill-opacity="1">
<use xlink:href="#glyph-1-0" x="143.565" y="48.804"/>
<use xlink:href="#glyph-1-1" x="148.172833" y="48.804"/>
<use xlink:href="#glyph-1-1" x="152.780666" y="48.804"/>
</g>
<g fill="rgb(0%, 0%, 0%)" fill-opacity="1">
<use xlink:href="#glyph-1-1" x="58.526" y="14.08"/>
</g>
<g fill="rgb(0%, 0%, 0%)" fill-opacity="1">
<use xlink:href="#glyph-1-2" x="186.085" y="68.871"/>
</g>
</svg>
