<?xml version="1.0" encoding="UTF-8"?>
<svg xmlns="http://www.w3.org/2000/svg" xmlns:xlink="http://www.w3.org/1999/xlink" width="113.224pt" height="95.117pt" viewBox="0 0 113.224 95.117">
<defs>
<g>
<g id="glyph-0-0">
<path d="M 2.5 -5.078125 C 2.5 -5.296875 2.484375 -5.296875 2.265625 -5.296875 C 1.9375 -4.984375 1.515625 -4.796875 0.765625 -4.796875 L 0.765625 -4.53125 C 0.984375 -4.53125 1.40625 -4.53125 1.875 -4.734375 L 1.875 -0.65625 C 1.875 -0.359375 1.84375 -0.265625 1.09375 -0.265625 L 0.8125 -0.265625 L 0.8125 0 C 1.140625 -0.03125 1.828125 -0.03125 2.1875 -0.03125 C 2.546875 -0.03125 3.234375 -0.03125 3.5625 0 L 3.5625 -0.265625 L 3.28125 -0.265625 C 2.53125 -0.265625 2.5 -0.359375 2.5 -0.65625 Z M 2.5 -5.078125 "/>
</g>
<g id="glyph-0-1">
<path d="M 3.890625 -2.546875 C 3.890625 -3.390625 3.8125 -3.90625 3.546875 -4.421875 C 3.203125 -5.125 2.546875 -5.296875 2.109375 -5.296875 C 1.109375 -5.296875 0.734375 -4.546875 0.625 -4.328125 C 0.34375 -3.75 0.328125 -2.953125 0.328125 -2.546875 C 0.328125 -2.015625 0.34375 -1.21875 0.734375 -0.578125 C 1.09375 0.015625 1.6875 0.171875 2.109375 0.171875 C 2.5 0.171875 3.171875 0.046875 3.578125 -0.734375 C 3.875 -1.3125 3.890625 -2.03125 3.890625 -2.546875 Z M 2.109375 -0.0625 C 1.84375 -0.0625 1.296875 -0.1875 1.125 -1.015625 C 1.03125 -1.46875 1.03125 -2.21875 1.03125 -2.640625 C 1.03125 -3.1875 1.03125 -3.75 1.125 -4.1875 C 1.296875 -5 1.90625 -5.078125 2.109375 -5.078125 C 2.375 -5.078125 2.9375 -4.9375 3.09375 -4.21875 C 3.1875 -3.78125 3.1875 -3.171875 3.1875 -2.640625 C 3.1875 -2.171875 3.1875 -1.453125 3.09375 -1 C 2.921875 -0.171875 2.375 -0.0625 2.109375 -0.0625 Z M 2.109375 -0.0625 "/>
</g>
<g id="glyph-1-0">
<path d="M 2.71875 -5.734375 C 2.71875 -5.953125 2.71875 -5.96875 2.5 -5.96875 C 1.9375 -5.40625 1.109375 -5.40625 0.828125 -5.40625 L 0.828125 -5.125 C 1 -5.125 1.546875 -5.125 2.03125 -5.359375 L 2.03125 -0.71875 C 2.03125 -0.390625 2.015625 -0.28125 1.171875 -0.28125 L 0.890625 -0.28125 L 0.890625 0 C 1.203125 -0.03125 2.015625 -0.03125 2.375 -0.03125 C 2.75 -0.03125 3.546875 -0.03125 3.875 0 L 3.875 -0.28125 L 3.59375 -0.28125 C 2.75 -0.28125 2.71875 -0.390625 2.71875 -0.71875 Z M 2.71875 -5.734375 "/>
</g>
<g id="glyph-1-1">
<path d="M 4.25 -2.875 C 4.25 -3.46875 4.21875 -4.25 3.90625 -4.921875 C 3.5 -5.765625 2.828125 -5.96875 2.3125 -5.96875 C 1.765625 -5.96875 1.078125 -5.765625 0.6875 -4.890625 C 0.40625 -4.28125 0.359375 -3.546875 0.359375 -2.875 C 0.359375 -2.28125 0.375 -1.421875 0.765625 -0.703125 C 1.1875 0.046875 1.890625 0.203125 2.296875 0.203125 C 2.875 0.203125 3.546875 -0.046875 3.921875 -0.875 C 4.1875 -1.484375 4.25 -2.15625 4.25 -2.875 Z M 2.3125 -0.03125 C 2.03125 -0.03125 1.390625 -0.15625 1.21875 -1.171875 C 1.125 -1.6875 1.125 -2.46875 1.125 -2.984375 C 1.125 -3.59375 1.125 -4.296875 1.234375 -4.796875 C 1.421875 -5.59375 1.984375 -5.75 2.296875 -5.75 C 2.640625 -5.75 3.203125 -5.5625 3.375 -4.734375 C 3.46875 -4.25 3.46875 -3.546875 3.46875 -2.984375 C 3.46875 -2.421875 3.46875 -1.671875 3.375 -1.140625 C 3.1875 -0.109375 2.53125 -0.03125 2.3125 -0.03125 Z M 2.3125 -0.03125 "/>
</g>
</g>
</defs>
<path fill-rule="nonzero" fill="rgb(50%, 50%, 50%)" fill-opacity="1" stroke-width="0.3985" stroke-linecap="butt" stroke-linejoin="miter" stroke="rgb(50%, 50%, 50%)" stroke-opacity="1" stroke-miterlimit="10" d="M 2.323125 2.325094 L -2.325312 2.325094 L -2.325312 -2.323344 L 2.323125 -2.323344 Z M 2.323125 2.325094 " transform="matrix(1, 0, 0, -1, 7.505, 40.954)"/>
<path fill-rule="nonzero" fill="rgb(50%, 50%, 50%)" fill-opacity="1" stroke-width="0.3985" stroke-linecap="butt" stroke-linejoin="miter" stroke="rgb(50%, 50%, 50%)" stroke-opacity="1" stroke-miterlimit="10" d="M 43.139531 -29.76475 C 43.139531 -27.948344 41.666875 -26.475687 39.850469 -26.475687 C 38.034062 -26.475687 36.565312 -27.948344 36.565312 -29.76475 C 36.565312 -31.581156 38.034062 -33.049906 39.850469 -33.049906 C 41.666875 -33.049906 43.139531 -31.581156 43.139531 -29.76475 Z M 43.139531 -29.76475 " transform="matrix(1, 0, 0, -1, 7.505, 40.954)"/>
<path fill="none" stroke-width="0.3985" stroke-linecap="butt" stroke-linejoin="miter" stroke="rgb(0%, 0%, 0%)" stroke-opacity="1" stroke-miterlimit="10" d="M 2.46375 -1.838969 L 37.104375 -27.713969 " transform="matrix(1, 0, 0, -1, 7.505, 40.954)"/>
<path fill-rule="nonzero" fill="rgb(100%, 100%, 100%)" fill-opacity="1" stroke-width="0.3985" stroke-linecap="butt" stroke-linejoin="miter" stroke="rgb(50%, 50%, 50%)" stroke-opacity="1" stroke-miterlimit="10" d="M 82.991094 -44.647562 C 82.991094 -42.831156 81.518438 -41.3585 79.702031 -41.3585 C 77.885625 -41.3585 76.412969 -42.831156 76.412969 -44.647562 C 76.412969 -46.460062 77.885625 -47.932719 79.702031 -47.932719 C 81.518438 -47.932719 82.991094 -46.460062 82.991094 -44.647562 Z M 82.991094 -44.647562 " transform="matrix(1, 0, 0, -1, 7.505, 40.954)"/>
<path fill="none" stroke-width="0.3985" stroke-linecap="butt" stroke-linejoin="miter" stroke="rgb(0%, 0%, 0%)" stroke-opacity="1" stroke-miterlimit="10" d="M 43.061406 -30.963969 L 76.491094 -43.448344 " transform="matrix(1, 0, 0, -1, 7.505, 40.954)"/>
<g fill="rgb(0%, 0%, 0%)" fill-opacity="1">
<use xlink:href="#glyph-0-0" x="65.164" y="86.815"/>
</g>
<path fill-rule="nonzero" fill="rgb(50%, 50%, 50%)" fill-opacity="1" stroke-width="0.3985" stroke-linecap="butt" stroke-linejoin="miter" stroke="rgb(50%, 50%, 50%)" stroke-opacity="1" stroke-miterlimit="10" d="M 82.991094 -14.881937 C 82.991094 -13.065531 81.518438 -11.592875 79.702031 -11.592875 C 77.885625 -11.592875 76.412969 -13.065531 76.412969 -14.881937 C 76.412969 -16.698344 77.885625 -18.171 79.702031 -18.171 C 81.518438 -18.171 82.991094 -16.698344 82.991094 -14.881937 Z M 82.991094 -14.881937 " transform="matrix(1, 0, 0, -1, 7.505, 40.954)"/>
<path fill="none" stroke-width="0.3985" stroke-linecap="butt" stroke-linejoin="miter" stroke="rgb(0%, 0%, 0%)" stroke-opacity="1" stroke-miterlimit="10" d="M 43.061406 -28.565531 L 76.491094 -16.081156 " transform="matrix(1, 0, 0, -1, 7.505, 40.954)"/>
<g fill="rgb(0%, 0%, 0%)" fill-opacity="1">
<use xlink:href="#glyph-0-1" x="65.164" y="59.757"/>
</g>
<g fill="rgb(0%, 0%, 0%)" fill-opacity="1">
<use xlink:href="#glyph-0-0" x="25.172" y="64.387"/>
</g>
<path fill-rule="nonzero" fill="rgb(50%, 50%, 50%)" fill-opacity="1" stroke-width="0.3985" stroke-linecap="butt" stroke-linejoin="miter" stroke="rgb(50%, 50%, 50%)" stroke-opacity="1" stroke-miterlimit="10" d="M 43.139531 29.762594 C 43.139531 31.579 41.666875 33.051656 39.850469 33.051656 C 38.034062 33.051656 36.565312 31.579 36.565312 29.762594 C 36.565312 27.950094 38.034062 26.477438 39.850469 26.477438 C 41.666875 26.477438 43.139531 27.950094 43.139531 29.762594 Z M 43.139531 29.762594 " transform="matrix(1, 0, 0, -1, 7.505, 40.954)"/>
<path fill="none" stroke-width="0.3985" stroke-linecap="butt" stroke-linejoin="miter" stroke="rgb(0%, 0%, 0%)" stroke-opacity="1" stroke-miterlimit="10" d="M 2.46375 1.840719 L 37.104375 27.711813 " transform="matrix(1, 0, 0, -1, 7.505, 40.954)"/>
<g fill="rgb(0%, 0%, 0%)" fill-opacity="1">
<use xlink:href="#glyph-0-1" x="25.172" y="22.658"/>
</g>
<g fill="rgb(0%, 0%, 0%)" fill-opacity="1">
<use xlink:href="#glyph-1-0" x="95.707" y="58.725"/>
<use xlink:href="#glyph-1-1" x="100.314833" y="58.725"/>
</g>
<g fill="rgb(0%, 0%, 0%)" fill-opacity="1">
<use xlink:href="#glyph-1-1" x="55.857" y="14.08"/>
</g>
<g fill="rgb(0%, 0%, 0%)" fill-opacity="1">
<use xlink:href="#glyph-1-0" x="45.052" y="62.217"/>
</g>
</svg>
