<?xml version="1.0" encoding="UTF-8"?>
<svg xmlns="http://www.w3.org/2000/svg" xmlns:xlink="http://www.w3.org/1999/xlink" width="194.21pt" height="146.97pt" viewBox="0 0 194.21 146.97">
<defs>
<g>
<g id="glyph-0-0">
<path d="M 3.890625 -2.546875 C 3.890625 -3.390625 3.8125 -3.90625 3.546875 -4.421875 C 3.203125 -5.125 2.546875 -5.296875 2.109375 -5.296875 C 1.109375 -5.296875 0.734375 -4.546875 0.625 -4.328125 C 0.34375 -3.75 0.328125 -2.953125 0.328125 -2.546875 C 0.328125 -2.015625 0.34375 -1.21875 0.734375 -0.578125 C 1.09375 0.015625 1.6875 0.171875 2.109375 0.171875 C 2.5 0.171875 3.171875 0.046875 3.578125 -0.734375 C 3.875 -1.3125 3.890625 -2.03125 3.890625 -2.546875 Z M 2.109375 -0.0625 C 1.84375 -0.0625 1.296875 -0.1875 1.125 -1.015625 C 1.03125 -1.46875 1.03125 -2.21875 1.03125 -2.640625 C 1.03125 -3.1875 1.03125 -3.75 1.125 -4.1875 C 1.296875 -5 1.90625 -5.078125 2.109375 -5.078125 C 2.375 -5.078125 2.9375 -4.9375 3.09375 -4.21875 C 3.1875 -3.78125 3.1875 -3.171875 3.1875 -2.640625 C 3.1875 -2.171875 3.1875 -1.453125 3.09375 -1 C 2.921875 -0.171875 2.375 -0.0625 2.109375 -0.0625 Z M 2.109375 -0.0625 "/>
</g>
<g id="glyph-0-1">
<path d="M 1.09375 -2.640625 C 1.09375 -3.296875 1.15625 -3.875 1.4375 -4.359375 C 1.6875 -4.765625 2.09375 -5.09375 2.59375 -5.09375 C 2.75 -5.09375 3.109375 -5.0625 3.296875 -4.796875 C 2.9375 -4.765625 2.90625 -4.5 2.90625 -4.421875 C 2.90625 -4.171875 3.09375 -4.046875 3.28125 -4.046875 C 3.421875 -4.046875 3.65625 -4.125 3.65625 -4.4375 C 3.65625 -4.90625 3.296875 -5.296875 2.578125 -5.296875 C 1.46875 -5.296875 0.34375 -4.25 0.34375 -2.53125 C 0.34375 -0.359375 1.359375 0.171875 2.125 0.171875 C 2.515625 0.171875 2.921875 0.0625 3.28125 -0.28125 C 3.609375 -0.59375 3.875 -0.921875 3.875 -1.625 C 3.875 -2.65625 3.078125 -3.390625 2.203125 -3.390625 C 1.625 -3.390625 1.28125 -3.03125 1.09375 -2.640625 Z M 2.125 -0.078125 C 1.703125 -0.078125 1.4375 -0.359375 1.328125 -0.59375 C 1.140625 -0.953125 1.125 -1.484375 1.125 -1.796875 C 1.125 -2.578125 1.546875 -3.171875 2.171875 -3.171875 C 2.5625 -3.171875 2.8125 -2.96875 2.953125 -2.6875 C 3.125 -2.390625 3.125 -2.03125 3.125 -1.625 C 3.125 -1.21875 3.125 -0.875 2.96875 -0.578125 C 2.75 -0.21875 2.484375 -0.078125 2.125 -0.078125 Z M 2.125 -0.078125 "/>
</g>
<g id="glyph-0-2">
<path d="M 3.140625 -5.15625 C 3.140625 -5.3125 3.140625 -5.375 2.96875 -5.375 C 2.875 -5.375 2.859375 -5.375 2.78125 -5.265625 L 0.234375 -1.5625 L 0.234375 -1.3125 L 2.484375 -1.3125 L 2.484375 -0.640625 C 2.484375 -0.34375 2.46875 -0.265625 1.84375 -0.265625 L 1.671875 -0.265625 L 1.671875 0 C 2.34375 -0.03125 2.359375 -0.03125 2.8125 -0.03125 C 3.265625 -0.03125 3.28125 -0.03125 3.953125 0 L 3.953125 -0.265625 L 3.78125 -0.265625 C 3.15625 -0.265625 3.140625 -0.34375 3.140625 -0.640625 L 3.140625 -1.3125 L 3.984375 -1.3125 L 3.984375 -1.5625 L 3.140625 -1.5625 Z M 2.546875 -4.515625 L 2.546875 -1.5625 L 0.515625 -1.5625 Z M 2.546875 -4.515625 "/>
</g>
<g id="glyph-0-3">
<path d="M 2.25 -1.625 C 2.375 -1.75 2.703125 -2.015625 2.84375 -2.125 C 3.328125 -2.578125 3.796875 -3.015625 3.796875 -3.734375 C 3.796875 -4.6875 3 -5.296875 2.015625 -5.296875 C 1.046875 -5.296875 0.421875 -4.578125 0.421875 -3.859375 C 0.421875 -3.46875 0.734375 -3.421875 0.84375 -3.421875 C 1.015625 -3.421875 1.265625 -3.53125 1.265625 -3.84375 C 1.265625 -4.25 0.859375 -4.25 0.765625 -4.25 C 1 -4.84375 1.53125 -5.03125 1.921875 -5.03125 C 2.65625 -5.03125 3.046875 -4.40625 3.046875 -3.734375 C 3.046875 -2.90625 2.46875 -2.296875 1.515625 -1.34375 L 0.515625 -0.296875 C 0.421875 -0.21875 0.421875 -0.203125 0.421875 0 L 3.5625 0 L 3.796875 -1.421875 L 3.546875 -1.421875 C 3.53125 -1.265625 3.46875 -0.875 3.375 -0.71875 C 3.328125 -0.65625 2.71875 -0.65625 2.59375 -0.65625 L 1.171875 -0.65625 Z M 2.25 -1.625 "/>
</g>
<g id="glyph-0-4">
<path d="M 2.5 -5.078125 C 2.5 -5.296875 2.484375 -5.296875 2.265625 -5.296875 C 1.9375 -4.984375 1.515625 -4.796875 0.765625 -4.796875 L 0.765625 -4.53125 C 0.984375 -4.53125 1.40625 -4.53125 1.875 -4.734375 L 1.875 -0.65625 C 1.875 -0.359375 1.84375 -0.265625 1.09375 -0.265625 L 0.8125 -0.265625 L 0.8125 0 C 1.140625 -0.03125 1.828125 -0.03125 2.1875 -0.03125 C 2.546875 -0.03125 3.234375 -0.03125 3.5625 0 L 3.5625 -0.265625 L 3.28125 -0.265625 C 2.53125 -0.265625 2.5 -0.359375 2.5 -0.65625 Z M 2.5 -5.078125 "/>
</g>
<g id="glyph-1-0">
<path d="M 1.625 -0.4375 C 1.625 -0.703125 1.390625 -0.890625 1.171875 -0.890625 C 0.921875 -0.890625 0.734375 -0.671875 0.734375 -0.453125 C 0.734375 -0.171875 0.953125 0 1.171875 0 C 1.421875 0 1.625 -0.203125 1.625 -0.4375 Z M 1.625 -0.4375 "/>
</g>
</g>
<clipPath id="clip-0">
<path clip-rule="nonzero" d="M 171 129 L 190 129 L 190 146.96875 L 171 146.96875 Z M 171 129 "/>
</clipPath>
</defs>
<path fill-rule="nonzero" fill="rgb(50%, 50%, 50%)" fill-opacity="1" stroke-width="0.3985" stroke-linecap="butt" stroke-linejoin="miter" stroke="rgb(50%, 50%, 50%)" stroke-opacity="1" stroke-miterlimit="10" d="M 2.323187 2.323656 L -2.32525 2.323656 L -2.32525 -2.324781 L 2.323187 -2.324781 Z M 2.323187 2.323656 " transform="matrix(1, 0, 0, -1, 10.419, 78.726)"/>
<path fill-rule="nonzero" fill="rgb(50%, 50%, 50%)" fill-opacity="1" stroke-width="0.3985" stroke-linecap="butt" stroke-linejoin="miter" stroke="rgb(50%, 50%, 50%)" stroke-opacity="1" stroke-miterlimit="10" d="M 44.163031 -14.945875 C 44.163031 -14.035719 43.428656 -13.301344 42.5185 -13.301344 C 41.61225 -13.301344 40.877875 -14.035719 40.877875 -14.945875 C 40.877875 -15.852125 41.61225 -16.5865 42.5185 -16.5865 C 43.428656 -16.5865 44.163031 -15.852125 44.163031 -14.945875 Z M 44.163031 -14.945875 " transform="matrix(1, 0, 0, -1, 10.419, 78.726)"/>
<path fill="none" stroke-width="0.3985" stroke-linecap="butt" stroke-linejoin="miter" stroke="rgb(0%, 0%, 0%)" stroke-opacity="1" stroke-miterlimit="10" d="M 2.463812 -0.863844 L 40.905219 -14.375563 " transform="matrix(1, 0, 0, -1, 10.419, 78.726)"/>
<path fill-rule="nonzero" fill="rgb(50%, 50%, 50%)" fill-opacity="1" stroke-width="0.3985" stroke-linecap="butt" stroke-linejoin="miter" stroke="rgb(50%, 50%, 50%)" stroke-opacity="1" stroke-miterlimit="10" d="M 86.682563 -29.887281 C 86.682563 -28.981031 85.948188 -28.24275 85.041938 -28.24275 C 84.131781 -28.24275 83.397406 -28.981031 83.397406 -29.887281 C 83.397406 -30.797438 84.131781 -31.531813 85.041938 -31.531813 C 85.948188 -31.531813 86.682563 -30.797438 86.682563 -29.887281 Z M 86.682563 -29.887281 " transform="matrix(1, 0, 0, -1, 10.419, 78.726)"/>
<path fill="none" stroke-width="0.3985" stroke-linecap="butt" stroke-linejoin="miter" stroke="rgb(0%, 0%, 0%)" stroke-opacity="1" stroke-miterlimit="10" d="M 44.135688 -15.512281 L 83.42475 -29.320875 " transform="matrix(1, 0, 0, -1, 10.419, 78.726)"/>
<path fill-rule="nonzero" fill="rgb(50%, 50%, 50%)" fill-opacity="1" stroke-width="0.3985" stroke-linecap="butt" stroke-linejoin="miter" stroke="rgb(50%, 50%, 50%)" stroke-opacity="1" stroke-miterlimit="10" d="M 129.206 -44.832594 C 129.206 -43.926344 128.467719 -43.188063 127.561469 -43.188063 C 126.651313 -43.188063 125.916938 -43.926344 125.916938 -44.832594 C 125.916938 -45.738844 126.651313 -46.477125 127.561469 -46.477125 C 128.467719 -46.477125 129.206 -45.738844 129.206 -44.832594 Z M 129.206 -44.832594 " transform="matrix(1, 0, 0, -1, 10.419, 78.726)"/>
<path fill="none" stroke-width="0.3985" stroke-linecap="butt" stroke-linejoin="miter" stroke="rgb(0%, 0%, 0%)" stroke-opacity="1" stroke-miterlimit="10" d="M 86.655219 -30.457594 L 125.944281 -44.266188 " transform="matrix(1, 0, 0, -1, 10.419, 78.726)"/>
<path fill-rule="nonzero" fill="rgb(50%, 50%, 50%)" fill-opacity="1" d="M 183.789062 138.503906 C 183.789062 136.6875 182.316406 135.214844 180.5 135.214844 C 178.683594 135.214844 177.210938 136.6875 177.210938 138.503906 C 177.210938 140.316406 178.683594 141.789062 180.5 141.789062 C 182.316406 141.789062 183.789062 140.316406 183.789062 138.503906 Z M 183.789062 138.503906 "/>
<g clip-path="url(#clip-0)">
<path fill="none" stroke-width="0.3985" stroke-linecap="butt" stroke-linejoin="miter" stroke="rgb(50%, 50%, 50%)" stroke-opacity="1" stroke-miterlimit="10" d="M 173.370062 -59.777906 C 173.370062 -57.9615 171.897406 -56.488844 170.081 -56.488844 C 168.264594 -56.488844 166.791937 -57.9615 166.791937 -59.777906 C 166.791937 -61.590406 168.264594 -63.063063 170.081 -63.063063 C 171.897406 -63.063063 173.370062 -61.590406 173.370062 -59.777906 Z M 173.370062 -59.777906 " transform="matrix(1, 0, 0, -1, 10.419, 78.726)"/>
</g>
<path fill="none" stroke-width="0.3985" stroke-linecap="butt" stroke-linejoin="miter" stroke="rgb(0%, 0%, 0%)" stroke-opacity="1" stroke-miterlimit="10" d="M 129.178656 -45.399 L 166.846625 -58.641188 " transform="matrix(1, 0, 0, -1, 10.419, 78.726)"/>
<path fill-rule="nonzero" fill="rgb(50%, 50%, 50%)" fill-opacity="1" stroke-width="0.3985" stroke-linecap="butt" stroke-linejoin="miter" stroke="rgb(50%, 50%, 50%)" stroke-opacity="1" stroke-miterlimit="10" d="M 173.370062 -29.887281 C 173.370062 -28.070875 171.897406 -26.602125 170.081 -26.602125 C 168.264594 -26.602125 166.791937 -28.070875 166.791937 -29.887281 C 166.791937 -31.703688 168.264594 -33.176344 170.081 -33.176344 C 171.897406 -33.176344 173.370062 -31.703688 173.370062 -29.887281 Z M 173.370062 -29.887281 " transform="matrix(1, 0, 0, -1, 10.419, 78.726)"/>
<path fill="none" stroke-width="0.3985" stroke-linecap="butt" stroke-linejoin="miter" stroke="rgb(0%, 0%, 0%)" stroke-opacity="1" stroke-miterlimit="10" d="M 129.178656 -44.266188 L 166.846625 -31.024 " transform="matrix(1, 0, 0, -1, 10.419, 78.726)"/>
<path fill="none" stroke-width="0.3985" stroke-linecap="butt" stroke-linejoin="miter" stroke="rgb(0%, 0%, 0%)" stroke-opacity="1" stroke-miterlimit="10" d="M 86.655219 -29.320875 L 127.561469 -14.945875 " transform="matrix(1, 0, 0, -1, 10.419, 78.726)"/>
<path fill-rule="nonzero" fill="rgb(50%, 50%, 50%)" fill-opacity="1" stroke-width="0.3985" stroke-linecap="butt" stroke-linejoin="miter" stroke="rgb(50%, 50%, 50%)" stroke-opacity="1" stroke-miterlimit="10" d="M 173.370062 -0.0005625 C 173.370062 1.815844 171.897406 3.2885 170.081 3.2885 C 168.264594 3.2885 166.791937 1.815844 166.791937 -0.0005625 C 166.791937 -1.816969 168.264594 -3.285719 170.081 -3.285719 C 171.897406 -3.285719 173.370062 -1.816969 173.370062 -0.0005625 Z M 173.370062 -0.0005625 " transform="matrix(1, 0, 0, -1, 10.419, 78.726)"/>
<path fill="none" stroke-width="0.3985" stroke-linecap="butt" stroke-linejoin="miter" stroke="rgb(0%, 0%, 0%)" stroke-opacity="1" stroke-miterlimit="10" d="M 127.561469 -14.945875 L 166.846625 -1.137281 " transform="matrix(1, 0, 0, -1, 10.419, 78.726)"/>
<path fill="none" stroke-width="0.3985" stroke-linecap="butt" stroke-linejoin="miter" stroke="rgb(0%, 0%, 0%)" stroke-opacity="1" stroke-miterlimit="10" d="M 44.135688 -14.375563 L 85.041938 -0.0005625 " transform="matrix(1, 0, 0, -1, 10.419, 78.726)"/>
<path fill="none" stroke-width="0.3985" stroke-linecap="butt" stroke-linejoin="miter" stroke="rgb(0%, 0%, 0%)" stroke-opacity="1" stroke-miterlimit="10" d="M 85.041938 -0.0005625 L 127.561469 14.94475 " transform="matrix(1, 0, 0, -1, 10.419, 78.726)"/>
<path fill-rule="nonzero" fill="rgb(50%, 50%, 50%)" fill-opacity="1" stroke-width="0.3985" stroke-linecap="butt" stroke-linejoin="miter" stroke="rgb(50%, 50%, 50%)" stroke-opacity="1" stroke-miterlimit="10" d="M 173.370062 29.890062 C 173.370062 31.702562 171.897406 33.175219 170.081 33.175219 C 168.264594 33.175219 166.791937 31.702562 166.791937 29.890062 C 166.791937 28.073656 168.264594 26.601 170.081 26.601 C 171.897406 26.601 173.370062 28.073656 173.370062 29.890062 Z M 173.370062 29.890062 " transform="matrix(1, 0, 0, -1, 10.419, 78.726)"/>
<path fill="none" stroke-width="0.3985" stroke-linecap="butt" stroke-linejoin="miter" stroke="rgb(0%, 0%, 0%)" stroke-opacity="1" stroke-miterlimit="10" d="M 127.561469 14.94475 L 166.846625 28.753344 " transform="matrix(1, 0, 0, -1, 10.419, 78.726)"/>
<path fill="none" stroke-width="0.3985" stroke-linecap="butt" stroke-linejoin="miter" stroke="rgb(0%, 0%, 0%)" stroke-opacity="1" stroke-miterlimit="10" d="M 2.463812 0.866625 L 42.5185 14.94475 " transform="matrix(1, 0, 0, -1, 10.419, 78.726)"/>
<path fill="none" stroke-width="0.3985" stroke-linecap="butt" stroke-linejoin="miter" stroke="rgb(0%, 0%, 0%)" stroke-opacity="1" stroke-miterlimit="10" d="M 42.5185 14.94475 L 85.041938 29.890062 " transform="matrix(1, 0, 0, -1, 10.419, 78.726)"/>
<path fill="none" stroke-width="0.3985" stroke-linecap="butt" stroke-linejoin="miter" stroke="rgb(0%, 0%, 0%)" stroke-opacity="1" stroke-miterlimit="10" d="M 85.041938 29.890062 L 127.561469 44.831469 " transform="matrix(1, 0, 0, -1, 10.419, 78.726)"/>
<path fill-rule="nonzero" fill="rgb(50%, 50%, 50%)" fill-opacity="1" stroke-width="0.3985" stroke-linecap="butt" stroke-linejoin="miter" stroke="rgb(50%, 50%, 50%)" stroke-opacity="1" stroke-miterlimit="10" d="M 173.370062 59.776781 C 173.370062 61.593187 171.897406 63.065844 170.081 63.065844 C 168.264594 63.065844 166.791937 61.593187 166.791937 59.776781 C 166.791937 57.960375 168.264594 56.487719 170.081 56.487719 C 171.897406 56.487719 173.370062 57.960375 173.370062 59.776781 Z M 173.370062 59.776781 " transform="matrix(1, 0, 0, -1, 10.419, 78.726)"/>
<path fill="none" stroke-width="0.3985" stroke-linecap="butt" stroke-linejoin="miter" stroke="rgb(0%, 0%, 0%)" stroke-opacity="1" stroke-miterlimit="10" d="M 127.561469 44.831469 L 166.846625 58.640062 " transform="matrix(1, 0, 0, -1, 10.419, 78.726)"/>
<g fill="rgb(0%, 0%, 0%)" fill-opacity="1">
<use xlink:href="#glyph-0-0" x="47.528" y="88.158"/>
</g>
<g fill="rgb(0%, 0%, 0%)" fill-opacity="1">
<use xlink:href="#glyph-1-0" x="51.762" y="88.158"/>
</g>
<g fill="rgb(0%, 0%, 0%)" fill-opacity="1">
<use xlink:href="#glyph-0-1" x="54.115" y="88.158"/>
</g>
<g fill="rgb(0%, 0%, 0%)" fill-opacity="1">
<use xlink:href="#glyph-0-0" x="175.087" y="13.438"/>
</g>
<g fill="rgb(0%, 0%, 0%)" fill-opacity="1">
<use xlink:href="#glyph-1-0" x="179.322" y="13.438"/>
</g>
<g fill="rgb(0%, 0%, 0%)" fill-opacity="1">
<use xlink:href="#glyph-0-2" x="181.674" y="13.438"/>
</g>
<g fill="rgb(0%, 0%, 0%)" fill-opacity="1">
<use xlink:href="#glyph-0-0" x="90.048" y="103.102"/>
</g>
<g fill="rgb(0%, 0%, 0%)" fill-opacity="1">
<use xlink:href="#glyph-1-0" x="94.282" y="103.102"/>
</g>
<g fill="rgb(0%, 0%, 0%)" fill-opacity="1">
<use xlink:href="#glyph-0-2" x="96.634" y="103.102"/>
</g>
<g fill="rgb(0%, 0%, 0%)" fill-opacity="1">
<use xlink:href="#glyph-0-0" x="132.568" y="118.046"/>
</g>
<g fill="rgb(0%, 0%, 0%)" fill-opacity="1">
<use xlink:href="#glyph-1-0" x="136.802" y="118.046"/>
</g>
<g fill="rgb(0%, 0%, 0%)" fill-opacity="1">
<use xlink:href="#glyph-0-3" x="139.154" y="118.046"/>
</g>
<g fill="rgb(0%, 0%, 0%)" fill-opacity="1">
<use xlink:href="#glyph-0-0" x="175.087" y="73.214"/>
</g>
<g fill="rgb(0%, 0%, 0%)" fill-opacity="1">
<use xlink:href="#glyph-1-0" x="179.322" y="73.214"/>
</g>
<g fill="rgb(0%, 0%, 0%)" fill-opacity="1">
<use xlink:href="#glyph-0-3" x="181.674" y="73.214"/>
</g>
<g fill="rgb(0%, 0%, 0%)" fill-opacity="1">
<use xlink:href="#glyph-0-0" x="175.087" y="43.326"/>
</g>
<g fill="rgb(0%, 0%, 0%)" fill-opacity="1">
<use xlink:href="#glyph-1-0" x="179.322" y="43.326"/>
</g>
<g fill="rgb(0%, 0%, 0%)" fill-opacity="1">
<use xlink:href="#glyph-0-3" x="181.674" y="43.326"/>
</g>
<g fill="rgb(0%, 0%, 0%)" fill-opacity="1">
<use xlink:href="#glyph-0-0" x="175.087" y="132.99"/>
</g>
<g fill="rgb(0%, 0%, 0%)" fill-opacity="1">
<use xlink:href="#glyph-1-0" x="179.321" y="132.99"/>
</g>
<g fill="rgb(0%, 0%, 0%)" fill-opacity="1">
<use xlink:href="#glyph-0-4" x="181.674" y="132.99"/>
</g>
<g fill="rgb(0%, 0%, 0%)" fill-opacity="1">
<use xlink:href="#glyph-0-0" x="175.087" y="103.102"/>
</g>
<g fill="rgb(0%, 0%, 0%)" fill-opacity="1">
<use xlink:href="#glyph-1-0" x="179.321" y="103.102"/>
</g>
<g fill="rgb(0%, 0%, 0%)" fill-opacity="1">
<use xlink:href="#glyph-0-4" x="181.674" y="103.102"/>
</g>
<g fill="rgb(0%, 0%, 0%)" fill-opacity="1">
<use xlink:href="#glyph-0-4" x="8.302" y="73.214"/>
</g>
</svg>
