<?xml version="1.0" encoding="UTF-8"?>
<svg xmlns="http://www.w3.org/2000/svg" xmlns:xlink="http://www.w3.org/1999/xlink" width="205.412pt" height="81.007pt" viewBox="0 0 205.412 81.007">
<path fill-rule="nonzero" fill="rgb(86.743164%, 8.988953%, 19.160461%)" fill-opacity="1" d="M 29.71875 44.921875 L 29.621094 44.921875 C 28.324219 44.921875 27.863281 44.359375 27.863281 43.019531 L 27.910156 32.164062 C 27.910156 31.753906 27.820312 31.53125 27.363281 31.53125 C 27.246094 31.53125 26.972656 31.5625 26.554688 31.609375 C 25.605469 31.71875 23.847656 31.875 21.746094 31.9375 L 21.652344 31.941406 L 21.652344 33.300781 L 21.746094 33.300781 C 22.855469 33.300781 23.589844 33.601562 23.589844 34.886719 L 23.550781 38.046875 C 23.550781 43.28125 21.449219 44.296875 19.917969 44.296875 C 18.664062 44.296875 18.199219 42.996094 18.199219 41.90625 L 18.257812 32.164062 C 18.257812 31.753906 18.167969 31.53125 17.710938 31.53125 C 17.59375 31.53125 17.316406 31.5625 16.902344 31.609375 C 15.953125 31.71875 14.394531 31.875 12.296875 31.9375 L 12.203125 31.941406 L 12.203125 33.300781 L 12.300781 33.300781 C 13.410156 33.300781 14.144531 33.601562 14.144531 34.886719 L 14.082031 41.460938 C 14.082031 45.742188 16.296875 46.640625 18.152344 46.640625 C 20.921875 46.640625 22.511719 44.835938 23.375 43.867188 C 23.613281 43.597656 23.855469 43.320312 23.941406 43.320312 C 23.984375 43.320312 24.113281 43.320312 24.113281 43.527344 L 24.113281 46.1875 C 24.113281 46.582031 24.378906 46.640625 24.539062 46.640625 C 24.660156 46.640625 24.925781 46.605469 25.332031 46.550781 C 26.308594 46.414062 27.949219 46.28125 29.621094 46.28125 L 29.71875 46.28125 Z M 29.71875 44.921875 "/>
<path fill-rule="nonzero" fill="rgb(86.743164%, 8.988953%, 19.160461%)" fill-opacity="1" d="M 59.046875 32.097656 L 55.605469 32.097656 L 55.890625 29.871094 C 56.316406 26.828125 56.867188 25.53125 57.738281 25.53125 C 58.085938 25.53125 58.300781 25.707031 58.300781 26 C 58.300781 26.195312 58.277344 26.289062 58.246094 26.394531 C 58.21875 26.511719 58.179688 26.625 58.179688 26.867188 C 58.179688 27.367188 58.492188 27.953125 59.386719 27.953125 C 60.460938 27.953125 60.945312 27.125 60.945312 26.304688 C 60.945312 24.949219 59.972656 24.171875 58.277344 24.171875 C 54.5 24.171875 53.480469 29.472656 52.988281 32.097656 L 49.945312 32.097656 L 49.667969 33.453125 L 52.785156 33.453125 L 52.582031 34.773438 C 52.445312 35.660156 52.308594 36.539062 52.175781 37.4375 L 51.941406 38.957031 C 50.617188 47.722656 49.945312 51.613281 48.496094 51.613281 C 48.332031 51.613281 48.292969 51.566406 48.292969 51.378906 C 48.292969 51.320312 48.3125 51.242188 48.335938 51.15625 C 48.375 51.027344 48.414062 50.867188 48.414062 50.660156 C 48.414062 50.0625 47.96875 49.640625 47.332031 49.640625 C 46.378906 49.640625 45.949219 50.324219 45.949219 50.960938 C 45.949219 52.144531 46.8125 52.972656 48.050781 52.972656 C 50.265625 52.972656 52.984375 50.414062 55.433594 33.453125 L 58.808594 33.453125 Z M 59.046875 32.097656 "/>
<path fill-rule="nonzero" fill="rgb(86.743164%, 8.988953%, 19.160461%)" fill-opacity="1" d="M 60.417969 43.039062 C 59.445312 43.039062 58.652344 43.835938 58.652344 44.8125 C 58.652344 45.789062 59.445312 46.582031 60.417969 46.582031 C 61.398438 46.582031 62.191406 45.789062 62.191406 44.8125 C 62.191406 43.835938 61.398438 43.039062 60.417969 43.039062 "/>
<path fill-rule="nonzero" fill="rgb(86.743164%, 8.988953%, 19.160461%)" fill-opacity="1" d="M 3.792969 73.742188 L 71.355469 73.742188 L 71.355469 6.179688 L 3.792969 6.179688 Z M 7.425781 9.8125 L 67.722656 9.8125 L 67.722656 70.105469 L 7.425781 70.105469 Z M 7.425781 9.8125 "/>
<path fill-rule="nonzero" fill="rgb(86.743164%, 8.988953%, 19.160461%)" fill-opacity="1" d="M 42.597656 31.53125 C 39.886719 31.53125 38.417969 33.414062 37.789062 34.3125 C 37.75 32.519531 37.085938 31.679688 35.691406 31.679688 C 33.441406 31.679688 32.128906 34.753906 31.417969 36.40625 L 31.382812 36.480469 L 32.445312 37.082031 L 32.492188 36.992188 C 32.539062 36.890625 32.601562 36.75 32.679688 36.578125 C 33.140625 35.554688 34.097656 33.429688 35.089844 33.429688 C 35.632812 33.429688 35.714844 34.09375 35.714844 34.496094 C 35.714844 35.074219 35.539062 35.976562 35.242188 37.347656 L 32.429688 49.394531 C 32.023438 51.183594 31.828125 51.46875 30.042969 51.46875 L 29.960938 51.46875 L 29.71875 52.832031 L 37.261719 52.832031 L 37.578125 51.46875 L 37.457031 51.46875 C 35.125 51.46875 34.738281 51.445312 34.738281 50.550781 C 34.738281 50.363281 34.84375 49.917969 34.925781 49.554688 L 36.257812 43.90625 C 36.984375 45.417969 37.871094 46.640625 40.558594 46.640625 C 45.1875 46.640625 47.65625 41.429688 47.65625 37.667969 C 47.65625 34.613281 46.09375 31.53125 42.597656 31.53125 M 39.960938 44.761719 C 38.035156 44.761719 37.351562 42.804688 37.351562 41.136719 C 37.351562 37.894531 38.894531 33.410156 41.789062 33.410156 C 44.09375 33.410156 44.578125 35.371094 44.578125 37.011719 C 44.578125 39.4375 43.414062 44.761719 39.960938 44.761719 "/>
<path fill-rule="nonzero" fill="rgb(86.743164%, 8.988953%, 19.160461%)" fill-opacity="1" d="M 82.945312 18.308594 L 82.945312 23.484375 C 82.945312 26.101562 84.6875 27.910156 88.300781 27.910156 C 92.214844 27.910156 93.367188 25.792969 93.367188 23.125 L 93.367188 18.253906 C 93.367188 16.953125 93.546875 16.296875 95.003906 16.296875 L 95.003906 15.480469 L 90.574219 15.480469 L 90.574219 16.296875 C 91.679688 16.296875 92.480469 16.636719 92.480469 18.253906 L 92.480469 23.125 C 92.480469 23.609375 92.445312 24.425781 92.230469 24.957031 C 91.769531 26.101562 90.808594 26.828125 88.976562 26.828125 C 87 26.828125 86.023438 25.671875 86.023438 23.484375 L 86.023438 17.539062 C 86.023438 16.792969 86.324219 16.296875 87.496094 16.296875 L 87.925781 16.296875 L 87.925781 15.480469 L 81.199219 15.480469 L 81.199219 16.296875 C 82.589844 16.296875 82.945312 16.40625 82.945312 18.308594 "/>
<path fill-rule="nonzero" fill="rgb(86.743164%, 8.988953%, 19.160461%)" fill-opacity="1" d="M 96.324219 20.976562 L 96.324219 25.816406 C 96.324219 26.703125 95.96875 26.953125 95.132812 26.953125 L 95.132812 27.648438 L 99.808594 27.648438 L 99.808594 26.953125 C 99.257812 26.953125 98.777344 26.863281 98.777344 26.117188 L 98.777344 22.96875 C 98.777344 21.3125 99.703125 20.316406 100.609375 20.316406 C 101.144531 20.316406 101.640625 20.65625 101.640625 21.722656 L 101.640625 26.136719 C 101.640625 26.847656 101.144531 26.953125 100.59375 26.953125 L 100.59375 27.648438 L 105.183594 27.648438 L 105.183594 26.953125 C 104.472656 26.953125 104.097656 26.753906 104.097656 26.078125 L 104.097656 21.972656 C 104.097656 20.121094 103.226562 19.035156 101.480469 19.035156 C 99.597656 19.035156 98.847656 20.941406 98.652344 20.941406 C 98.566406 20.941406 98.546875 20.816406 98.546875 20.566406 L 98.546875 19.320312 C 98.546875 19.160156 98.527344 19.035156 98.386719 19.035156 C 98.136719 19.035156 96.535156 19.269531 95.042969 19.304688 L 95.042969 19.996094 C 95.84375 19.996094 96.324219 20.105469 96.324219 20.976562 "/>
<path fill-rule="nonzero" fill="rgb(86.743164%, 8.988953%, 19.160461%)" fill-opacity="1" d="M 108.234375 17.222656 C 108.980469 17.222656 109.605469 16.617188 109.605469 15.867188 C 109.605469 15.121094 108.980469 14.519531 108.234375 14.519531 C 107.488281 14.519531 106.863281 15.121094 106.863281 15.867188 C 106.863281 16.617188 107.488281 17.222656 108.234375 17.222656 "/>
<path fill-rule="nonzero" fill="rgb(86.743164%, 8.988953%, 19.160461%)" fill-opacity="1" d="M 110.9375 26.953125 C 110.191406 26.953125 109.765625 26.953125 109.765625 26.046875 L 109.765625 19.535156 C 109.765625 19.105469 109.691406 19.039062 109.496094 19.039062 C 108.980469 19.039062 107.894531 19.230469 106.027344 19.304688 L 106.027344 19.996094 C 106.8125 19.996094 107.308594 20.121094 107.308594 21.242188 L 107.308594 26.046875 C 107.308594 26.953125 106.863281 26.953125 106.027344 26.953125 L 106.027344 27.644531 L 110.9375 27.644531 Z M 110.9375 26.953125 "/>
<path fill-rule="nonzero" fill="rgb(86.743164%, 8.988953%, 19.160461%)" fill-opacity="1" d="M 112.316406 21.152344 L 115.144531 27.753906 L 116.640625 27.753906 L 119.324219 21.132812 C 119.699219 20.210938 119.949219 20.050781 120.375 19.996094 L 120.375 19.300781 L 117.28125 19.300781 L 117.28125 19.996094 C 117.972656 19.996094 118.402344 20.261719 118.402344 20.90625 C 118.402344 21.507812 118.0625 22.398438 117.8125 23.023438 L 117.011719 25.046875 C 116.941406 25.226562 116.90625 25.40625 116.816406 25.40625 C 116.765625 25.40625 116.710938 25.296875 116.605469 25.046875 L 115.535156 22.59375 C 115.144531 21.6875 114.914062 21.097656 114.914062 20.691406 C 114.914062 20.070312 115.484375 19.996094 115.980469 19.996094 L 115.980469 19.300781 L 111.089844 19.300781 L 111.089844 19.996094 C 111.820312 19.996094 111.90625 20.191406 112.316406 21.152344 "/>
<path fill-rule="nonzero" fill="rgb(86.743164%, 8.988953%, 19.160461%)" fill-opacity="1" d="M 124.558594 27.914062 C 126.375 27.914062 127.796875 26.847656 128.347656 25.050781 L 127.546875 25.050781 C 127.175781 25.957031 126.535156 26.828125 125.269531 26.828125 C 124.273438 26.828125 123.261719 26.027344 123.261719 23.730469 L 123.261719 23.394531 L 128.296875 23.394531 C 128.296875 20.886719 126.976562 19.035156 124.613281 19.035156 C 122.441406 19.035156 120.519531 20.90625 120.519531 23.480469 C 120.519531 26.046875 122.441406 27.914062 124.558594 27.914062 M 123.261719 22.257812 C 123.261719 20.515625 123.742188 19.730469 124.46875 19.730469 C 125.289062 19.730469 125.679688 20.585938 125.679688 22.167969 L 125.679688 22.523438 C 125.679688 22.644531 125.644531 22.703125 125.539062 22.703125 L 123.261719 22.703125 Z M 123.261719 22.257812 "/>
<path fill-rule="nonzero" fill="rgb(86.743164%, 8.988953%, 19.160461%)" fill-opacity="1" d="M 134.5 26.953125 C 133.34375 26.953125 132.722656 26.953125 132.722656 25.867188 L 132.722656 23.144531 C 132.722656 21.402344 133.378906 20.636719 133.644531 20.636719 C 133.894531 20.636719 133.699219 21.953125 134.910156 21.953125 C 135.726562 21.953125 136.121094 21.296875 136.121094 20.566406 C 136.121094 19.660156 135.636719 19.039062 134.730469 19.039062 C 133.308594 19.039062 132.757812 20.9375 132.492188 20.9375 C 132.402344 20.9375 132.402344 20.8125 132.402344 20.746094 L 132.402344 19.285156 C 132.402344 19.125 132.367188 19.039062 132.242188 19.039062 C 132.046875 19.039062 130.089844 19.265625 128.808594 19.304688 L 128.808594 19.996094 C 129.785156 19.996094 130.265625 20.101562 130.265625 20.972656 L 130.265625 25.867188 C 130.265625 26.953125 129.609375 26.953125 128.753906 26.953125 L 128.753906 27.644531 L 134.5 27.644531 Z M 134.5 26.953125 "/>
<path fill-rule="nonzero" fill="rgb(86.743164%, 8.988953%, 19.160461%)" fill-opacity="1" d="M 141.710938 26.136719 C 141.710938 26.792969 141.140625 27.21875 140.304688 27.21875 C 139.058594 27.21875 137.976562 26.277344 137.78125 25.015625 L 137.105469 25.015625 C 137.121094 25.492188 137.15625 25.957031 137.15625 26.4375 C 137.15625 26.917969 137.121094 27.398438 137.105469 27.875 L 137.742188 27.875 C 137.816406 27.59375 138.011719 27.433594 138.226562 27.433594 C 138.617188 27.433594 139.273438 27.910156 140.375 27.910156 C 142.085938 27.910156 143.347656 26.738281 143.347656 25.191406 C 143.347656 21.953125 138.597656 22.363281 138.597656 20.796875 C 138.597656 20.050781 139.132812 19.730469 139.878906 19.730469 C 141.105469 19.730469 141.835938 20.40625 142.207031 21.542969 L 142.796875 21.542969 C 142.777344 21.136719 142.742188 20.726562 142.742188 20.316406 C 142.742188 19.90625 142.777344 19.5 142.796875 19.089844 L 142.246094 19.089844 C 142.15625 19.320312 141.941406 19.394531 141.65625 19.394531 C 141.195312 19.394531 140.945312 19.035156 139.898438 19.035156 C 138.386719 19.035156 136.960938 19.890625 136.960938 21.417969 C 136.960938 24.675781 141.710938 24 141.710938 26.136719 "/>
<path fill-rule="nonzero" fill="rgb(86.743164%, 8.988953%, 19.160461%)" fill-opacity="1" d="M 148.996094 26.953125 C 148.25 26.953125 147.824219 26.953125 147.824219 26.046875 L 147.824219 19.535156 C 147.824219 19.105469 147.753906 19.039062 147.554688 19.039062 C 147.039062 19.039062 145.953125 19.230469 144.085938 19.304688 L 144.085938 19.996094 C 144.871094 19.996094 145.367188 20.121094 145.367188 21.242188 L 145.367188 26.046875 C 145.367188 26.953125 144.921875 26.953125 144.085938 26.953125 L 144.085938 27.644531 L 148.996094 27.644531 Z M 148.996094 26.953125 "/>
<path fill-rule="nonzero" fill="rgb(86.743164%, 8.988953%, 19.160461%)" fill-opacity="1" d="M 146.292969 17.222656 C 147.039062 17.222656 147.664062 16.617188 147.664062 15.867188 C 147.664062 15.121094 147.039062 14.519531 146.292969 14.519531 C 145.546875 14.519531 144.921875 15.121094 144.921875 15.867188 C 144.921875 16.617188 145.546875 17.222656 146.292969 17.222656 "/>
<path fill-rule="nonzero" fill="rgb(86.743164%, 8.988953%, 19.160461%)" fill-opacity="1" d="M 150.542969 25.511719 C 150.542969 27.148438 151.238281 27.914062 152.695312 27.914062 C 154.082031 27.914062 154.882812 27.148438 155.382812 25.917969 L 154.792969 25.65625 C 154.546875 26.078125 154.242188 26.632812 153.671875 26.632812 C 153.335938 26.632812 152.996094 26.472656 152.996094 25.691406 L 152.996094 19.996094 L 155.007812 19.996094 L 155.007812 19.304688 L 152.996094 19.304688 L 152.996094 15.851562 L 152.339844 15.851562 C 151.789062 17.382812 150.953125 18.929688 149.191406 19.410156 L 149.191406 19.996094 L 150.542969 19.996094 Z M 150.542969 25.511719 "/>
<path fill-rule="nonzero" fill="rgb(86.743164%, 8.988953%, 19.160461%)" fill-opacity="1" d="M 156.285156 25.832031 C 156.285156 27.007812 157.121094 27.914062 158.597656 27.914062 C 160.089844 27.914062 161.195312 26.9375 161.53125 26.667969 C 161.710938 26.972656 162.082031 27.914062 163.3125 27.914062 C 163.988281 27.914062 164.824219 27.59375 164.824219 26.757812 C 164.824219 26.648438 164.769531 26.578125 164.699219 26.578125 C 164.628906 26.578125 164.519531 26.632812 164.359375 26.632812 C 164.09375 26.632812 163.933594 26.488281 163.933594 26.117188 L 163.933594 22.753906 C 163.933594 20.316406 162.847656 19.039062 159.773438 19.039062 C 158.046875 19.039062 156.660156 19.714844 156.660156 20.992188 C 156.660156 21.6875 157.105469 22.328125 157.867188 22.328125 C 158.757812 22.328125 159.113281 21.773438 159.113281 21.1875 C 159.113281 20.371094 158.597656 20.496094 158.597656 20.121094 C 158.597656 19.90625 158.847656 19.730469 159.558594 19.730469 C 160.804688 19.730469 161.480469 20.265625 161.480469 21.597656 L 161.480469 22.769531 C 159.628906 22.859375 156.285156 23.34375 156.285156 25.832031 M 159.808594 26.828125 C 159.078125 26.828125 158.738281 26.3125 158.738281 25.351562 C 158.738281 23.695312 160.714844 23.34375 161.390625 23.34375 C 161.480469 23.34375 161.480469 23.445312 161.480469 24.140625 C 161.480469 25.9375 160.804688 26.828125 159.808594 26.828125 "/>
<path fill-rule="nonzero" fill="rgb(86.743164%, 8.988953%, 19.160461%)" fill-opacity="1" d="M 166.410156 25.511719 C 166.410156 27.148438 167.105469 27.914062 168.5625 27.914062 C 169.949219 27.914062 170.75 27.148438 171.25 25.917969 L 170.664062 25.65625 C 170.414062 26.078125 170.109375 26.632812 169.542969 26.632812 C 169.203125 26.632812 168.867188 26.472656 168.867188 25.691406 L 168.867188 19.996094 L 170.875 19.996094 L 170.875 19.304688 L 168.867188 19.304688 L 168.867188 15.851562 L 168.207031 15.851562 C 167.65625 17.382812 166.820312 18.929688 165.058594 19.410156 L 165.058594 19.996094 L 166.410156 19.996094 Z M 166.410156 25.511719 "/>
<path fill-rule="nonzero" fill="rgb(86.743164%, 8.988953%, 19.160461%)" fill-opacity="1" d="M 88.226562 45.550781 L 87.871094 45.550781 C 86.609375 45.550781 86.199219 45.476562 86.199219 44.570312 L 86.199219 40.761719 C 86.199219 40.621094 86.269531 40.566406 86.503906 40.566406 L 87.621094 40.566406 C 89.8125 40.566406 92.585938 39.996094 92.585938 37.347656 C 92.585938 35.480469 91.289062 34.199219 87.941406 34.199219 L 81.519531 34.199219 L 81.519531 35.019531 C 82.589844 35.019531 83.121094 35.070312 83.121094 36.226562 L 83.121094 44.570312 C 83.121094 45.140625 82.835938 45.550781 82.019531 45.550781 L 81.519531 45.550781 L 81.519531 46.367188 L 88.226562 46.367188 Z M 86.199219 36.175781 C 86.199219 35.28125 86.574219 34.964844 87.300781 34.964844 C 88.742188 34.964844 89.1875 35.960938 89.1875 37.238281 C 89.1875 39.269531 88.457031 39.804688 86.503906 39.804688 C 86.269531 39.804688 86.199219 39.746094 86.199219 39.605469 Z M 86.199219 36.175781 "/>
<path fill-rule="nonzero" fill="rgb(86.743164%, 8.988953%, 19.160461%)" fill-opacity="1" d="M 97.09375 37.757812 C 94.816406 37.757812 92.789062 39.625 92.789062 42.203125 C 92.789062 44.765625 94.710938 46.632812 97.09375 46.632812 C 99.480469 46.632812 101.398438 44.765625 101.398438 42.203125 C 101.398438 39.625 99.371094 37.757812 97.09375 37.757812 M 97.09375 45.941406 C 96.1875 45.941406 95.53125 45.476562 95.53125 42.203125 C 95.53125 38.878906 96.296875 38.449219 97.09375 38.449219 C 97.894531 38.449219 98.660156 38.878906 98.660156 42.203125 C 98.660156 45.476562 98.003906 45.941406 97.09375 45.941406 "/>
<path fill-rule="nonzero" fill="rgb(86.743164%, 8.988953%, 19.160461%)" fill-opacity="1" d="M 101.984375 38.023438 L 101.984375 38.714844 C 102.609375 38.714844 103.070312 38.824219 103.070312 39.695312 L 103.070312 44.585938 C 103.070312 45.601562 102.574219 45.671875 101.984375 45.671875 L 101.984375 46.367188 L 106.59375 46.367188 L 106.59375 45.671875 C 105.792969 45.671875 105.527344 45.476562 105.527344 44.585938 L 105.527344 42.027344 C 105.527344 40.441406 106.238281 39.039062 107.164062 39.039062 C 107.890625 39.039062 108.320312 39.550781 108.320312 41.121094 L 108.320312 44.585938 C 108.320312 45.601562 107.820312 45.671875 107.269531 45.671875 L 107.269531 46.367188 L 111.839844 46.367188 L 111.839844 45.671875 C 111.039062 45.671875 110.773438 45.476562 110.773438 44.585938 L 110.773438 42.027344 C 110.773438 40.441406 111.484375 39.039062 112.410156 39.039062 C 113.140625 39.039062 113.566406 39.550781 113.566406 41.121094 L 113.566406 44.585938 C 113.566406 45.601562 113.070312 45.671875 112.515625 45.671875 L 112.515625 46.367188 L 117.089844 46.367188 L 117.089844 45.671875 C 116.289062 45.671875 116.023438 45.476562 116.023438 44.585938 L 116.023438 40.851562 C 116.023438 38.894531 115.027344 37.753906 113.441406 37.753906 C 111.289062 37.753906 110.898438 39.695312 110.683594 39.695312 C 110.453125 39.695312 110.417969 37.753906 108.175781 37.753906 C 106.238281 37.753906 105.5625 39.660156 105.328125 39.660156 C 105.222656 39.660156 105.222656 39.484375 105.222656 39.179688 L 105.222656 38.003906 C 105.222656 37.84375 105.1875 37.753906 105.0625 37.753906 C 104.761719 37.753906 103.214844 37.953125 101.984375 38.023438 "/>
<path fill-rule="nonzero" fill="rgb(86.743164%, 8.988953%, 19.160461%)" fill-opacity="1" d="M 117.214844 38.71875 C 118.015625 38.71875 118.496094 38.824219 118.496094 39.695312 L 118.496094 48.21875 C 118.496094 48.964844 117.804688 49.144531 117.214844 49.144531 L 117.214844 49.835938 L 122.75 49.835938 L 122.75 49.144531 C 121.46875 49.144531 120.953125 49.070312 120.953125 48.25 L 120.953125 45.726562 C 120.953125 45.617188 120.988281 45.511719 121.078125 45.511719 C 121.253906 45.511719 121.664062 46.632812 123.320312 46.632812 C 125.558594 46.632812 126.824219 44.621094 126.824219 42.027344 C 126.824219 39.339844 125.277344 37.757812 123.351562 37.757812 C 121.539062 37.757812 120.898438 39.25 120.722656 39.25 C 120.667969 39.25 120.632812 39.160156 120.632812 38.875 L 120.632812 38.007812 C 120.632812 37.882812 120.597656 37.757812 120.472656 37.757812 C 120.277344 37.757812 118.390625 37.988281 117.214844 38.023438 Z M 122.554688 38.84375 C 123.746094 38.84375 124.082031 39.820312 124.082031 42.277344 C 124.082031 44.355469 123.601562 45.550781 122.515625 45.550781 C 121.433594 45.550781 120.953125 44.214844 120.953125 42.277344 C 120.953125 40.691406 121.164062 38.84375 122.554688 38.84375 "/>
<path fill-rule="nonzero" fill="rgb(86.743164%, 8.988953%, 19.160461%)" fill-opacity="1" d="M 135.804688 43.769531 L 135.003906 43.769531 C 134.628906 44.675781 133.992188 45.546875 132.726562 45.546875 C 131.730469 45.546875 130.714844 44.75 130.714844 42.453125 L 130.714844 42.117188 L 135.75 42.117188 C 135.75 39.605469 134.433594 37.753906 132.070312 37.753906 C 129.898438 37.753906 127.976562 39.625 127.976562 42.203125 C 127.976562 44.765625 129.898438 46.632812 132.015625 46.632812 C 133.828125 46.632812 135.253906 45.566406 135.804688 43.769531 M 130.714844 40.976562 C 130.714844 39.234375 131.199219 38.449219 131.925781 38.449219 C 132.746094 38.449219 133.136719 39.304688 133.136719 40.886719 L 133.136719 41.242188 C 133.136719 41.367188 133.101562 41.421875 132.992188 41.421875 L 130.714844 41.421875 Z M 130.714844 40.976562 "/>
<path fill-rule="nonzero" fill="rgb(86.743164%, 8.988953%, 19.160461%)" fill-opacity="1" d="M 146.34375 45.675781 C 145.507812 45.675781 145.242188 45.335938 145.242188 44.53125 L 145.242188 38.074219 C 145.242188 37.828125 145.1875 37.757812 144.972656 37.757812 C 144.742188 37.757812 143.410156 37.972656 141.628906 38.023438 L 141.628906 38.71875 C 142.234375 38.71875 142.785156 38.84375 142.785156 39.695312 L 142.785156 42.222656 C 142.785156 44.195312 141.824219 45.355469 140.828125 45.355469 C 140.117188 45.355469 139.871094 44.710938 139.871094 43.875 L 139.871094 38.074219 C 139.871094 37.828125 139.816406 37.757812 139.601562 37.757812 C 139.371094 37.757812 138.035156 37.972656 136.257812 38.023438 L 136.257812 38.71875 C 136.863281 38.71875 137.414062 38.84375 137.414062 39.695312 L 137.414062 43.609375 C 137.414062 45.796875 138.410156 46.632812 139.78125 46.632812 C 141.988281 46.632812 142.679688 44.65625 142.964844 44.65625 C 143.070312 44.65625 143.125 44.730469 143.125 44.835938 L 143.125 46.421875 C 143.125 46.527344 143.160156 46.632812 143.320312 46.632812 C 143.550781 46.632812 144.9375 46.367188 146.34375 46.367188 Z M 146.34375 45.675781 "/>
<path fill-rule="nonzero" fill="rgb(86.743164%, 8.988953%, 19.160461%)" fill-opacity="1" d="M 158.582031 34.964844 C 160.558594 34.964844 162 35.90625 162.210938 37.914062 L 163.03125 37.914062 L 162.957031 34.199219 L 151.929688 34.199219 L 151.929688 35.015625 C 152.945312 35.015625 153.476562 35.070312 153.476562 36.226562 L 153.476562 44.570312 C 153.476562 45.140625 153.191406 45.550781 152.375 45.550781 L 151.929688 45.550781 L 151.929688 46.367188 L 158.53125 46.367188 L 158.53125 45.550781 L 158.226562 45.550781 C 156.964844 45.550781 156.554688 45.476562 156.554688 44.570312 L 156.554688 40.710938 C 156.554688 40.476562 156.644531 40.441406 156.980469 40.441406 C 158.617188 40.441406 159.132812 41.101562 159.242188 42.738281 L 160.023438 42.738281 L 160.023438 37.472656 L 159.207031 37.472656 C 159.207031 39.320312 158.296875 39.679688 156.820312 39.679688 C 156.609375 39.679688 156.554688 39.609375 156.554688 39.375 L 156.554688 35.890625 C 156.554688 35.160156 156.785156 34.964844 158.582031 34.964844 "/>
<path fill-rule="nonzero" fill="rgb(86.743164%, 8.988953%, 19.160461%)" fill-opacity="1" d="M 171.835938 45.300781 C 171.765625 45.300781 171.65625 45.351562 171.496094 45.351562 C 171.230469 45.351562 171.070312 45.210938 171.070312 44.835938 L 171.070312 41.476562 C 171.070312 39.035156 169.984375 37.757812 166.90625 37.757812 C 165.183594 37.757812 163.796875 38.433594 163.796875 39.714844 C 163.796875 40.40625 164.238281 41.046875 165.003906 41.046875 C 165.894531 41.046875 166.25 40.496094 166.25 39.910156 C 166.25 39.089844 165.734375 39.214844 165.734375 38.84375 C 165.734375 38.628906 165.984375 38.449219 166.695312 38.449219 C 167.941406 38.449219 168.617188 38.984375 168.617188 40.320312 L 168.617188 41.492188 C 166.765625 41.582031 163.421875 42.0625 163.421875 44.554688 C 163.421875 45.726562 164.257812 46.632812 165.734375 46.632812 C 167.226562 46.632812 168.332031 45.652344 168.667969 45.390625 C 168.847656 45.691406 169.222656 46.632812 170.449219 46.632812 C 171.125 46.632812 171.960938 46.3125 171.960938 45.476562 C 171.960938 45.371094 171.90625 45.300781 171.835938 45.300781 M 166.945312 45.550781 C 166.214844 45.550781 165.875 45.03125 165.875 44.070312 C 165.875 42.417969 167.851562 42.0625 168.527344 42.0625 C 168.617188 42.0625 168.617188 42.167969 168.617188 42.859375 C 168.617188 44.660156 167.941406 45.550781 166.945312 45.550781 "/>
<path fill-rule="nonzero" fill="rgb(86.743164%, 8.988953%, 19.160461%)" fill-opacity="1" d="M 178.429688 37.757812 C 176.667969 37.757812 176.296875 39.070312 176.097656 39.070312 C 175.992188 39.070312 175.976562 38.984375 175.976562 38.558594 L 175.976562 33.433594 C 175.976562 33.289062 175.902344 33.238281 175.816406 33.238281 C 175.511719 33.238281 174.144531 33.523438 172.203125 33.59375 L 172.203125 34.285156 L 172.363281 34.285156 C 173.199219 34.285156 173.519531 34.535156 173.519531 35.496094 L 173.519531 41.5625 C 173.519531 43.609375 173.519531 45.28125 173.449219 46.632812 L 174.125 46.632812 C 174.285156 46.367188 175.015625 45.191406 175.210938 45.191406 C 175.460938 45.191406 176.222656 46.632812 177.789062 46.632812 C 180.296875 46.632812 181.863281 44.589844 181.863281 42.132812 C 181.863281 39.890625 180.636719 37.757812 178.429688 37.757812 M 177.664062 45.941406 C 176.542969 45.941406 175.976562 44.535156 175.976562 42.363281 C 175.976562 39.980469 176.542969 38.84375 177.664062 38.84375 C 178.589844 38.84375 179.125 39.519531 179.125 42.664062 C 179.125 44.925781 178.625 45.941406 177.664062 45.941406 "/>
<path fill-rule="nonzero" fill="rgb(86.743164%, 8.988953%, 19.160461%)" fill-opacity="1" d="M 188.398438 37.757812 C 186.976562 37.757812 186.425781 39.660156 186.15625 39.660156 C 186.066406 39.660156 186.066406 39.535156 186.066406 39.464844 L 186.066406 38.007812 C 186.066406 37.847656 186.03125 37.757812 185.90625 37.757812 C 185.710938 37.757812 183.757812 37.988281 182.476562 38.023438 L 182.476562 38.71875 C 183.453125 38.71875 183.933594 38.824219 183.933594 39.695312 L 183.933594 44.589844 C 183.933594 45.671875 183.273438 45.671875 182.421875 45.671875 L 182.421875 46.367188 L 188.167969 46.367188 L 188.167969 45.671875 C 187.011719 45.671875 186.390625 45.671875 186.390625 44.589844 L 186.390625 41.867188 C 186.390625 40.121094 187.046875 39.359375 187.3125 39.359375 C 187.5625 39.359375 187.367188 40.675781 188.578125 40.675781 C 189.394531 40.675781 189.785156 40.015625 189.785156 39.285156 C 189.785156 38.378906 189.304688 37.757812 188.398438 37.757812 "/>
<path fill-rule="nonzero" fill="rgb(86.743164%, 8.988953%, 19.160461%)" fill-opacity="1" d="M 198.832031 45.300781 C 198.761719 45.300781 198.65625 45.351562 198.496094 45.351562 C 198.226562 45.351562 198.070312 45.210938 198.070312 44.835938 L 198.070312 41.476562 C 198.070312 39.035156 196.984375 37.757812 193.90625 37.757812 C 192.179688 37.757812 190.792969 38.433594 190.792969 39.714844 C 190.792969 40.40625 191.238281 41.046875 192.003906 41.046875 C 192.890625 41.046875 193.246094 40.496094 193.246094 39.910156 C 193.246094 39.089844 192.730469 39.214844 192.730469 38.84375 C 192.730469 38.628906 192.980469 38.449219 193.691406 38.449219 C 194.9375 38.449219 195.613281 38.984375 195.613281 40.320312 L 195.613281 41.492188 C 193.761719 41.582031 190.417969 42.0625 190.417969 44.554688 C 190.417969 45.726562 191.253906 46.632812 192.730469 46.632812 C 194.226562 46.632812 195.328125 45.652344 195.667969 45.390625 C 195.84375 45.691406 196.21875 46.632812 197.445312 46.632812 C 198.121094 46.632812 198.957031 46.3125 198.957031 45.476562 C 198.957031 45.371094 198.90625 45.300781 198.832031 45.300781 M 193.941406 45.550781 C 193.210938 45.550781 192.875 45.03125 192.875 44.070312 C 192.875 42.417969 194.847656 42.0625 195.523438 42.0625 C 195.613281 42.0625 195.613281 42.167969 195.613281 42.859375 C 195.613281 44.660156 194.9375 45.550781 193.941406 45.550781 "/>
<path fill-rule="nonzero" fill="rgb(86.743164%, 8.988953%, 19.160461%)" fill-opacity="1" d="M 94.097656 55.480469 C 94.097656 53.46875 92.320312 52.917969 90.09375 52.917969 L 83.976562 52.917969 L 83.796875 53.71875 L 84.15625 53.71875 C 85.132812 53.71875 85.523438 53.863281 85.523438 54.359375 C 85.523438 54.625 85.46875 54.894531 85.382812 55.265625 L 83.671875 63.183594 C 83.511719 63.964844 83.335938 64.289062 82.269531 64.289062 L 81.804688 64.289062 L 81.628906 65.085938 L 88.226562 65.085938 C 92.105469 65.085938 93.5625 63.167969 93.5625 61.261719 C 93.5625 59.269531 91.554688 58.804688 90.664062 58.664062 L 90.664062 58.628906 C 91.574219 58.417969 94.097656 58.113281 94.097656 55.480469 M 91.695312 61.441406 C 91.695312 63.378906 90.539062 64.289062 87.070312 64.289062 C 85.417969 64.289062 85.273438 64.019531 85.273438 63.464844 C 85.273438 63.304688 85.308594 63.058594 85.363281 62.808594 L 86.183594 58.988281 L 87.070312 58.988281 C 89.4375 58.988281 91.695312 59.074219 91.695312 61.441406 M 87.710938 58.183594 L 86.34375 58.183594 L 87.140625 54.699219 C 87.339844 53.878906 87.480469 53.71875 89.207031 53.71875 C 91.429688 53.71875 92.425781 54.164062 92.425781 55.640625 C 92.425781 58.148438 89.472656 58.183594 87.710938 58.183594 "/>
<path fill-rule="nonzero" fill="rgb(86.743164%, 8.988953%, 19.160461%)" fill-opacity="1" d="M 101.984375 64.339844 C 101.703125 64.339844 101.59375 64.125 101.59375 63.773438 C 101.59375 62.8125 102.644531 58.824219 103.285156 56.742188 L 101.949219 56.742188 L 101.59375 57.828125 L 101.558594 57.863281 C 101.417969 57.488281 101.007812 56.476562 99.636719 56.476562 C 96.96875 56.476562 95.402344 60.019531 95.402344 62.3125 C 95.402344 63.878906 96.097656 65.355469 97.714844 65.355469 C 99.070312 65.355469 100.027344 64.109375 100.332031 63.773438 L 100.367188 63.804688 C 100.402344 64.394531 100.492188 65.355469 101.503906 65.355469 C 102.714844 65.355469 103.65625 63.804688 104.085938 62.847656 L 103.535156 62.472656 C 103.355469 62.914062 102.574219 64.339844 101.984375 64.339844 M 98.25 64.5 C 97.183594 64.5 96.863281 63.523438 96.863281 62.613281 C 96.863281 61.117188 97.949219 57.277344 99.78125 57.277344 C 100.972656 57.277344 101.113281 58.363281 101.113281 59.109375 C 101.113281 60.550781 100.117188 64.5 98.25 64.5 "/>
<path fill-rule="nonzero" fill="rgb(86.743164%, 8.988953%, 19.160461%)" fill-opacity="1" d="M 110.785156 56.476562 C 109.59375 56.476562 108.617188 58.273438 108.1875 59.023438 L 108.152344 58.984375 C 108.1875 58.824219 108.277344 58.453125 108.277344 57.917969 C 108.277344 57.082031 107.886719 56.476562 107.140625 56.476562 C 105.839844 56.476562 105.074219 58.253906 104.648438 59.25 L 105.183594 59.554688 C 105.394531 59.125 106.054688 57.402344 106.785156 57.402344 C 107.015625 57.402344 107.175781 57.632812 107.175781 58.027344 C 107.175781 58.789062 106.730469 60.746094 106.25 62.402344 L 105.46875 65.085938 L 106.820312 65.085938 C 108.101562 59.820312 109.558594 57.617188 110.074219 57.617188 C 110.21875 57.617188 110.304688 57.6875 110.304688 57.792969 C 110.304688 57.988281 110.21875 58.007812 110.21875 58.308594 C 110.21875 58.703125 110.574219 58.949219 111 58.949219 C 111.53125 58.949219 111.976562 58.613281 111.976562 57.742188 C 111.976562 57.042969 111.570312 56.476562 110.785156 56.476562 "/>
<path fill-rule="nonzero" fill="rgb(86.743164%, 8.988953%, 19.160461%)" fill-opacity="1" d="M 117.183594 56.476562 C 114.320312 56.476562 112.363281 59.074219 112.363281 61.792969 C 112.363281 63.378906 113.234375 65.355469 115.957031 65.355469 C 117.324219 65.355469 118.550781 64.5 119.390625 63.46875 L 118.871094 62.914062 C 118.25 63.789062 117.238281 64.5 116.132812 64.5 C 114.621094 64.5 114.035156 63.273438 114.035156 61.882812 C 114.035156 59.214844 115.441406 57.167969 117.148438 57.167969 C 117.839844 57.167969 118.304688 57.417969 118.304688 57.667969 C 118.304688 58.027344 117.644531 58.039062 117.644531 58.863281 C 117.644531 59.359375 118.035156 59.699219 118.570312 59.699219 C 119.351562 59.699219 119.796875 59.058594 119.796875 58.414062 C 119.796875 57.066406 118.394531 56.476562 117.183594 56.476562 "/>
<path fill-rule="nonzero" fill="rgb(86.743164%, 8.988953%, 19.160461%)" fill-opacity="1" d="M 128.199219 58.308594 C 128.199219 56.90625 126.9375 56.476562 125.796875 56.476562 C 122.898438 56.476562 120.726562 59.429688 120.726562 62.167969 C 120.726562 64 121.707031 65.355469 123.769531 65.355469 C 125.832031 65.355469 127.042969 64.109375 127.808594 63.414062 L 127.382812 62.878906 C 126.382812 63.839844 125.28125 64.5 124.214844 64.5 C 122.898438 64.5 122.292969 63.648438 122.292969 62.402344 C 122.292969 62.242188 122.3125 62.042969 122.328125 61.917969 C 126.082031 61.140625 128.199219 60.230469 128.199219 58.308594 M 125.496094 57.167969 C 126.152344 57.167969 126.632812 57.5625 126.632812 58.308594 C 126.632812 60.035156 124.160156 60.996094 122.433594 61.261719 L 122.402344 61.226562 C 122.507812 59.859375 123.574219 57.167969 125.496094 57.167969 "/>
<path fill-rule="nonzero" fill="rgb(86.743164%, 8.988953%, 19.160461%)" fill-opacity="1" d="M 131.246094 64.339844 C 130.960938 64.339844 130.765625 64.109375 130.765625 63.628906 C 130.765625 63.253906 130.890625 62.898438 131.03125 62.3125 L 133.488281 52.441406 L 133.34375 52.242188 C 132.507812 52.367188 131.457031 52.476562 130.160156 52.492188 L 130 53.1875 L 130.410156 53.1875 C 131.261719 53.1875 131.566406 53.292969 131.566406 53.859375 C 131.566406 54.308594 131.386719 55.109375 131.171875 55.996094 L 129.910156 61.136719 C 129.625 62.277344 129.414062 63.09375 129.414062 63.699219 C 129.414062 64.535156 129.839844 65.265625 130.90625 65.265625 C 132.242188 65.265625 133.273438 63.449219 133.734375 62.382812 L 133.148438 62.117188 C 132.84375 62.738281 132.007812 64.339844 131.246094 64.339844 "/>
<path fill-rule="nonzero" fill="rgb(86.743164%, 8.988953%, 19.160461%)" fill-opacity="1" d="M 139.550781 56.476562 C 136.738281 56.476562 134.800781 58.984375 134.800781 61.882812 C 134.800781 63.773438 135.902344 65.355469 138.214844 65.355469 C 141.132812 65.355469 143.019531 62.703125 143.019531 60.144531 C 143.019531 58.039062 141.703125 56.476562 139.550781 56.476562 M 138.25 64.660156 C 136.863281 64.660156 136.367188 63.558594 136.367188 62.347656 C 136.367188 60.570312 137.253906 57.167969 139.425781 57.167969 C 140.921875 57.167969 141.453125 58.203125 141.453125 59.609375 C 141.453125 61.015625 140.671875 64.660156 138.25 64.660156 "/>
<path fill-rule="nonzero" fill="rgb(86.743164%, 8.988953%, 19.160461%)" fill-opacity="1" d="M 151.660156 64.339844 C 151.304688 64.339844 151.144531 64.054688 151.144531 63.753906 C 151.144531 63.21875 151.429688 62.5625 152.015625 61.085938 C 152.335938 60.28125 152.726562 59.304688 152.726562 58.414062 C 152.726562 57.242188 152 56.476562 150.84375 56.476562 C 149.3125 56.476562 148.210938 58.0625 147.625 59.023438 L 147.585938 58.984375 C 147.625 58.824219 147.710938 58.449219 147.710938 57.917969 C 147.710938 57.082031 147.320312 56.476562 146.574219 56.476562 C 145.273438 56.476562 144.511719 58.257812 144.082031 59.253906 L 144.617188 59.554688 C 144.832031 59.128906 145.488281 57.402344 146.21875 57.402344 C 146.449219 57.402344 146.609375 57.632812 146.609375 58.027344 C 146.609375 58.789062 146.164062 60.746094 145.683594 62.402344 L 144.902344 65.085938 L 146.324219 65.085938 L 147.125 62.117188 C 147.90625 59.269531 149.011719 57.402344 150.558594 57.402344 C 150.984375 57.402344 151.375 57.6875 151.375 58.289062 C 151.375 58.914062 151.144531 59.394531 150.683594 60.53125 C 150.148438 61.867188 149.792969 62.722656 149.792969 63.558594 C 149.792969 64.519531 150.203125 65.265625 151.164062 65.265625 C 152.605469 65.265625 153.476562 63.71875 154.097656 62.5625 L 153.476562 62.238281 C 153.171875 62.828125 152.390625 64.339844 151.660156 64.339844 "/>
<path fill-rule="nonzero" fill="rgb(86.743164%, 8.988953%, 19.160461%)" fill-opacity="1" d="M 161.746094 64.339844 C 161.460938 64.339844 161.355469 64.125 161.355469 63.773438 C 161.355469 62.8125 162.40625 58.824219 163.046875 56.742188 L 161.710938 56.742188 L 161.355469 57.828125 L 161.320312 57.863281 C 161.179688 57.488281 160.769531 56.476562 159.398438 56.476562 C 156.730469 56.476562 155.164062 60.019531 155.164062 62.3125 C 155.164062 63.878906 155.859375 65.355469 157.476562 65.355469 C 158.832031 65.355469 159.789062 64.109375 160.09375 63.773438 L 160.128906 63.804688 C 160.164062 64.394531 160.253906 65.355469 161.269531 65.355469 C 162.476562 65.355469 163.417969 63.804688 163.847656 62.847656 L 163.296875 62.472656 C 163.117188 62.914062 162.335938 64.339844 161.746094 64.339844 M 158.011719 64.5 C 156.945312 64.5 156.625 63.523438 156.625 62.613281 C 156.625 61.117188 157.710938 57.277344 159.542969 57.277344 C 160.734375 57.277344 160.875 58.363281 160.875 59.109375 C 160.875 60.550781 159.878906 64.5 158.011719 64.5 "/>
</svg>
